SplineFontDB: 3.0
FontName: Untitled
FullName: Untitled 
FamilyName: Untitled
Weight: Normal
Copyright: Copyright 2011 Adobe Systems Incorporated. All rights reserved.
Version: 001.001
ItalicAngle: 0
UnderlinePosition: -50
UnderlineWidth: 50
Ascent: 750
Descent: 250
sfntRevision: 0x00010000
LayerCount: 2
Layer: 0 0 "Back"  1
Layer: 1 0 "Fore"  0
NeedsXUIDChange: 1
XUID: [1021 14 500265001 14779192]
FSType: 4
OS2Version: 3
OS2_WeightWidthSlopeOnly: 0
OS2_UseTypoMetrics: 1
CreationTime: 1313529237
ModificationTime: 1313828862
PfmFamily: 81
TTFWeight: 400
TTFWidth: 5
LineGap: 9
VLineGap: 0
Panose: 0 0 0 0 0 0 0 0 0 0
OS2TypoAscent: 0
OS2TypoAOffset: 1
OS2TypoDescent: 0
OS2TypoDOffset: 1
OS2TypoLinegap: 0
OS2WinAscent: -12
OS2WinAOffset: 1
OS2WinDescent: -259
OS2WinDOffset: 1
HheadAscent: -262
HheadAOffset: 1
HheadDescent: 9
HheadDOffset: 1
OS2SubXSize: 650
OS2SubYSize: 600
OS2SubXOff: 0
OS2SubYOff: 75
OS2SupXSize: 650
OS2SupYSize: 600
OS2SupXOff: 0
OS2SupYOff: 350
OS2StrikeYSize: 50
OS2StrikeYPos: 300
OS2Vendor: 'pyrs'
OS2CodePages: 20000000.00000000
OS2UnicodeRanges: 00000001.00000000.00000000.00000000
DEI: 91125
LangName: 1033 "" "" "Regular" "1.000;pyrs;Untitled" "Untitled" "Version 1.000;PS 001.001;hotconv 1.0.56" "" "Please refer to the Copyright section for the font trademark attribution notices." 
Encoding: UnicodeBmp
Compacted: 1
UnicodeInterp: none
NameList: Adobe Glyph List
DisplaySize: -48
AntiAlias: 1
FitToEm: 1
WidthSeparation: 80
WinInfo: 0 22 12
BeginPrivate: 0
EndPrivate
BeginChars: 65537 89

StartChar: exclam
Encoding: 33 33 2
Width: 518
Flags: HW
LayerCount: 2
Fore
SplineSet
116.158203125 254.590820312 m 0
 116.158203125 350.21484375 160.548828125 423.4609375 192.668945312 507.108398438 c 0
 246.580078125 645.133789062 294.436523438 791 441.979492188 791 c 0
 460.654296875 791 485.923828125 795.526367188 485.923828125 778.127929688 c 0
 482.747070312 667.579101562 328.555664062 404.78125 267.528320312 310.959960938 c 0
 244.360351562 275.342773438 184.76953125 235 146.979492188 235 c 0
 133.973632812 235 116.158203125 241.91015625 116.158203125 254.590820312 c 0
31 55.4716796875 m 0
 31 148.212890625 122.592773438 209.23046875 193.98046875 210 c 0
 212.934570312 210.436523438 238.794921875 207.932617188 237.396484375 193.041992188 c 0
 229.23828125 106.213867188 161.677734375 12.9248046875 79.9794921875 11 c 0
 49.6533203125 11 31 26.3935546875 31 55.4716796875 c 0
EndSplineSet
EndChar

StartChar: dollar
Encoding: 36 36 3
Width: 628
Flags: HW
HStem: 495 21G<512.156 537.134>
LayerCount: 2
Back
SplineSet
596.28125 604.146484375 m 4
 594.822265625 561.55078125 556.962890625 495 519.565429688 495 c 4
 504.74609375 495 499.23828125 516 477.565429688 516 c 4
 454.340820312 516 428.918945312 438.379882812 426.103515625 416.325195312 c 5
 426.103515625 416 l 6
 426.103515625 413.556640625 425.1328125 404.719726562 425.1328125 402 c 6
 425.1328125 400.397460938 l 5
 460.096679688 349.936523438 498.2890625 295.817382812 498.2890625 228.982421875 c 4
 498.2890625 48.806640625 356.529296875 2.05859375 233.427734375 -41 c 4
 187.844726562 -56.693359375 203.133789062 -125.166992188 164.045898438 -131.559570312 c 5
 169.122070312 -101.62109375 182.880859375 -78.0302734375 182.880859375 -47.9052734375 c 4
 182.880859375 -36.1572265625 174.384765625 -33 161.221679688 -33 c 4
 114.615234375 -33 118.73828125 -130 84.5654296875 -130 c 4
 78.59765625 -130 77.8935546875 -132.174804688 79.513671875 -117.54296875 c 4
 83.51953125 -84.3818359375 106.013671875 -55.044921875 106.013671875 -17.271484375 c 4
 106.013671875 31.4814453125 30 24.5400390625 30 69.849609375 c 4
 30 115.446289062 107.541992188 176.997070312 143.565429688 179 c 4
 156.241210938 179 162.681640625 171 177.715820312 171 c 4
 206.395507812 171 233.53125 257.857421875 233.53125 285.078125 c 4
 233.53125 343.814453125 137.953125 383.634765625 137.953125 478.00390625 c 4
 137.953125 657.154296875 294.76171875 705.150390625 419.051757812 722.006835938 c 4
 440.795898438 725.552734375 449.685546875 743 463.943359375 743 c 4
 476.52734375 743 474.846679688 714 500.565429688 714 c 4
 527.522460938 714 534.3203125 744 552.565429688 744 c 4
 561.75390625 744 564.540039062 739.208984375 564.540039062 732.247070312 c 4
 564.540039062 721.521484375 557.9296875 705.641601562 557.9296875 694.1796875 c 4
 557.9296875 652.83203125 596.78515625 640.729492188 596.28125 604.146484375 c 4
285.323242188 102.573242188 m 4
 285.323242188 89.8505859375 296.841796875 88.9697265625 302.380859375 88.9697265625 c 4
 303.365234375 88.9697265625 304.203125 89 304.8203125 89 c 4
 305.01171875 89 306.26953125 88.861328125 308.087890625 88.861328125 c 4
 313.76953125 88.861328125 326.12890625 90.1494140625 326.12890625 101.370117188 c 6
 326.12890625 156 l 5
 297.12890625 156 285.323242188 125.416015625 285.323242188 102.573242188 c 4
276.682617188 251 m 4
 269.895507812 251 265.528320312 246.786132812 262.692382812 241.33984375 c 4
 252.65234375 221.793945312 224.118164062 159.239257812 218.646484375 122 c 5
 229.139648438 122 l 5
 269.809570312 117.385742188 274.858398438 193.2890625 293.072265625 216.666992188 c 4
 294.181640625 219.583984375 293.655273438 223.404296875 293.655273438 227.076171875 c 4
 293.655273438 238.705078125 290.81640625 251 276.682617188 251 c 4
375.788085938 491.384765625 m 5
 375.788085938 463 l 5
 411.905273438 463 452.395507812 554.538085938 452.395507812 580.815429688 c 4
 452.395507812 591.16015625 447.188476562 610 435.805664062 610 c 4
 427.631835938 610 424.73046875 604.62890625 420.823242188 597.88671875 c 6
 375.788085938 491.384765625 l 5
370.798828125 637 m 4
 336.548828125 637 330.875976562 586.780273438 328.293945312 555.203125 c 4
 328.293945312 545.655273438 330.85546875 537 340.720703125 537 c 4
 361.94921875 537 383.340820312 587.000976562 383.340820312 616.290039062 c 4
 383.340820312 628.421875 379.670898438 637 370.798828125 637 c 4
EndSplineSet
Fore
SplineSet
328.293945312 555.203125 m 0
 328.293945312 498.3697179 498.481052924 325.081691965 498.2890625 228.982421875 c 0
 498.2890625 51.8291072833 377.929756657 -41.2586975574 225.48074713 -41.2586975574 c 0
 149.263090428 -41.2586975574 30 26.0933487946 30 69.849609375 c 0
 30 115.446289062 107.486352972 179 143.565429688 179 c 0
 180.763161081 179 280.606124727 89 294.8203125 89 c 0
 302.118164062 89 326.12890625 88.6378257851 326.12890625 101.370117188 c 0
 326.12890625 280.884460449 137.953125 350.73113193 137.953125 478.00390625 c 0
 137.953125 657.154296875 294.995598949 703.584091666 419.051757812 722.006835938 c 0
 529.167442887 738.359374376 596.286109235 704.123990744 596.286109235 604.850518484 c 0
 596.286109235 561.87882965 556.227631728 495 519.565429688 495 c 0
 456.43851743 495 385.568413136 637 370.798828125 637 c 0
 336.548828125 637 328.293945312 586.885662601 328.293945312 555.203125 c 0
EndSplineSet
EndChar

StartChar: ampersand
Encoding: 38 38 4
Width: 686
Flags: HW
HStem: 57 58<279.127 359.038> 745 83<433.571 520.132>
LayerCount: 2
Fore
SplineSet
653.59765625 709.491210938 m 0
 652.375976562 571.250976562 496.587890625 484.016601562 414.5859375 416.512695312 c 1
 414.5859375 414.385742188 l 1
 413.053710938 409.3125 412.3515625 404.008789062 412.3515625 398.541992188 c 0
 412.3515625 345.862304688 465.713867188 255 493.971679688 255 c 2
 536.42578125 255 l 1
 540.362304688 243.875976562 546.715820312 210.9296875 556.940429688 201.46484375 c 0
 591.188476562 167.215820312 631.616210938 148.543945312 631.616210938 131.125 c 0
 631.616210938 61.171875 531.735351562 1 480.853515625 1 c 0
 429.5078125 1 401.607421875 57 359.038085938 57 c 0
 330.51171875 57 286.462890625 17.99609375 263.637695312 8.6279296875 c 0
 222.353515625 -9.10546875 185.239257812 -14 141.475585938 -14 c 0
 75.4560546875 -14 31 46.892578125 31 111.405273438 c 0
 31 229.717773438 181.94140625 306.346679688 230.096679688 380.4609375 c 0
 256.172851562 420.59375 236.196289062 475.272460938 243.01953125 522.290039062 c 0
 262.333984375 665.974609375 377.401367188 828 514.961914062 828 c 0
 596.88671875 828 653.59765625 789.686523438 653.59765625 709.491210938 c 0
254.036132812 266.3203125 m 1
 228.583007812 248.029296875 213.971679688 211.1484375 213.971679688 180.502929688 c 0
 213.971679688 140.182617188 240.62890625 115 279.126953125 115 c 0
 293.6328125 115 311.243164062 124.208984375 311.243164062 142.338867188 c 0
 311.243164062 154.192382812 289.622070312 232.497070312 254.036132812 263.795898438 c 1
 254.036132812 266.3203125 l 1
471.108398438 745 m 0
 403.969726562 745 380.08984375 615.623046875 380.08984375 560.166992188 c 0
 380.08984375 545.356445312 383.70703125 532 398.01953125 532 c 0
 452.662109375 532 486.330078125 680.91015625 488.794921875 725.374023438 c 0
 488.794921875 736.249023438 485.204101562 745 471.108398438 745 c 0
EndSplineSet
EndChar

StartChar: quoteright
Encoding: 8217 8217 5
Width: 230
Flags: HW
HStem: 586 255<80.8775 117.984>
VStem: 35.3497 161.097
LayerCount: 2
Fore
SplineSet
54.79296875 603.627929688 m 0
 54.5498046875 632.455078125 79.7431640625 645.928710938 79.90625 678.447265625 c 0
 79.90625 719.501953125 35 730.703125 35 762.3984375 c 0
 35 806.291992188 110.114257812 841 143.395507812 841 c 0
 179.821289062 841 197.581054688 801.547851562 197.581054688 762.616210938 c 0
 197.581054688 694.3515625 132.561523438 590.8671875 68.3955078125 586 c 0
 58.634765625 586 54.79296875 592.965820312 54.79296875 603.627929688 c 0
EndSplineSet
EndChar

StartChar: parenleft
Encoding: 40 40 6
Width: 484
Flags: HW
LayerCount: 2
Fore
SplineSet
198.791015625 6 m 0
 85.779296875 8.197265625 31 106.03125 31 217.592773438 c 0
 31 449.97265625 171.284179688 631.228515625 325.936523438 772.114257812 c 0
 340.520507812 784.075195312 407.829101562 834 435.421875 834 c 0
 444.879882812 834 452.623046875 830.642578125 452.623046875 821.905273438 c 0
 452.623046875 789.333984375 434.84375 781.219726562 415.387695312 754.954101562 c 0
 303.126953125 594.666992188 208.8125 453.26953125 208.8125 238.092773438 c 0
 208.8125 205.557617188 213.643554688 173.237304688 227.813476562 146.5859375 c 0
 241.81640625 119.3125 298.561523438 89.4072265625 298.561523438 60.65234375 c 0
 298.561523438 14.115234375 228.862304688 6 198.791015625 6 c 0
EndSplineSet
EndChar

StartChar: plus
Encoding: 43 43 7
Width: 714
Flags: HW
HStem: 338 186<69.6946 250.971>
VStem: 347.306 120.125<551.936 771.522>
LayerCount: 2
Fore
SplineSet
279.991210938 507 m 0
 379.065429688 507 307.619140625 795 404.94921875 795 c 0
 452.784179688 795 467.610351562 751.022460938 467.610351562 700.922851562 c 0
 467.286132812 667.012695312 456.776367188 537.755859375 454.604492188 503.290039062 c 1
 470.080078125 485 l 1
 578.1328125 485 l 2
 624.366210938 485 681.674804688 479.44921875 681.674804688 438.5078125 c 0
 681.674804688 347.165039062 465.299804688 383.32421875 434.251953125 347.508789062 c 0
 389.254882812 295.602539062 392.0390625 68 284.873046875 68 c 0
 249.658203125 68 223.450195312 91.8388671875 223.450195312 126.30078125 c 2
 223.450195312 171.306640625 l 1
 230.311523438 223.407226562 260.354492188 269.247070312 264.951171875 324.733398438 c 0
 264.951171875 332.799804688 262.520507812 340 251.680664062 340 c 0
 236.654296875 340 214.3515625 338 190.178710938 338 c 0
 111.211914062 338 31 353.033203125 31 423.524414062 c 0
 31.68359375 496.622070312 92.3173828125 524.79296875 146.1328125 524 c 0
 190.942382812 524 233.870117188 507 279.991210938 507 c 0
EndSplineSet
EndChar

StartChar: zero
Encoding: 48 48 8
Width: 668
Flags: HW
HStem: 42 121<193.042 346.807> 763 67<417.385 452.882>
LayerCount: 2
Fore
SplineSet
412.3984375 744.373046875 m 0
 311.875 633.07421875 231.349609375 496.102539062 231.336914062 335.971679688 c 0
 231.336914062 219.305664062 250.576171875 175.0703125 278.321289062 175.0703125 c 0
 350.038085938 175.0703125 478.583984375 470.62109375 478.583984375 574.776367188 c 0
 478.583984375 630.524414062 439.375 667.034179688 439.375 727.1015625 c 0
 439.375 737.458007812 449.596679688 742.743164062 451.938476562 757.177734375 c 1
 451.938476562 763 l 1
 438.293945312 763 421.599609375 754.876953125 412.3984375 744.373046875 c 0
196.990234375 42 m 0
 85.8115234375 42 31 142.46875 31 250.0703125 c 0
 31 496.303710938 240.373046875 830 470.498046875 830 c 0
 584.05078125 830 636.091796875 752.1171875 636.091796875 646.290039062 c 0
 636.091796875 425.493164062 408.69921875 42 196.990234375 42 c 0
EndSplineSet
EndChar

StartChar: one
Encoding: 49 49 9
Width: 535
Flags: HW
LayerCount: 2
Fore
SplineSet
31 104.942382812 m 0
 31 250.23828125 232.46875 450.735351562 252.138671875 602.31640625 c 1
 252.138671875 608 l 1
 233.8046875 608 212.760742188 602 196.5859375 602 c 0
 184.678710938 602 181.247070312 611.724609375 181.247070312 624.62890625 c 0
 174.217773438 725.888671875 415.326171875 830 478.5546875 830 c 0
 496.764648438 830 502.756835938 814.7109375 502.756835938 795.473632812 c 0
 502.756835938 770.407226562 492.064453125 738.876953125 486.01171875 725.247070312 c 0
 420.455078125 577.62890625 368.600585938 464.868164062 309.099609375 312.901367188 c 0
 266.330078125 202.3125 226.768554688 48 96.5546875 48 c 0
 63.0400390625 48 31 70.2275390625 31 104.942382812 c 0
EndSplineSet
EndChar

StartChar: two
Encoding: 50 50 10
Width: 581
Flags: HW
HStem: 51 183<195.789 352.374> 725 114<295.918 394.517>
LayerCount: 2
Fore
SplineSet
201.711914062 51 m 0
 132.12109375 51 30 71.1845703125 30 127.291992188 c 0
 30 142.176757812 43.32421875 160.626953125 48.6337890625 167.072265625 c 0
 168.614257812 312.704101562 348.768554688 438.951171875 348.768554688 666.869140625 c 0
 348.768554688 696.798828125 341.381835938 725 310.80859375 725 c 0
 245.745117188 725 253.193359375 540.889648438 247.130859375 490.661132812 c 0
 245.71484375 479.658203125 234.915039062 476 225.848632812 476 c 0
 169.252929688 476 140.040039062 542.78125 140.040039062 599.8046875 c 0
 140.040039062 748.138671875 277.625 839 389.975585938 839 c 0
 478.661132812 839 549.484375 784.418945312 549.484375 696.129882812 c 0
 549.484375 524.606445312 365.76953125 367.948242188 264.700195312 257.245117188 c 1
 264.700195312 247.6640625 l 1
 263.001953125 235.34765625 296.510742188 233.842773438 316.322265625 233.842773438 c 0
 322.731445312 233.842773438 327.586914062 234 329.15234375 234 c 0
 375.59375 234 422.900390625 250 468.5625 250 c 0
 472.1015625 250 472.840820312 245.534179688 471.607421875 235.666015625 c 0
 454.2421875 115.075195312 285.760742188 51 201.711914062 51 c 0
EndSplineSet
EndChar

StartChar: three
Encoding: 51 51 11
Width: 673
Flags: HW
HStem: 28 112<179.795 271.103> 733 113<408.53 504.289>
LayerCount: 2
Fore
SplineSet
183.66015625 28 m 0
 99.9140625 28 31 83.1611328125 31 166.661132812 c 0
 31 284.7890625 163.490234375 398.000976562 258.727539062 398.000976562 c 0
 269.947265625 398.000976562 278.471679688 397.711914062 278.471679688 387.448242188 c 0
 278.471679688 332.577148438 192.209960938 266.173828125 192.209960938 171.690429688 c 0
 192.209960938 153.81640625 198.018554688 140 221.634765625 140 c 0
 299.6640625 140 404.071289062 290.9140625 404.071289062 373.977539062 c 0
 404.071289062 455.749023438 314.90625 452.266601562 320.952148438 482.905273438 c 0
 335.55078125 556.890625 456.197265625 596.510742188 456.197265625 701.296875 c 0
 456.197265625 716.950195312 452.088867188 733 434.875976562 733 c 0
 407.30078125 733 310.580078125 554.028320312 289.177734375 554.028320312 c 0
 257.276367188 554.028320312 237.977539062 600.30859375 237.977539062 640.116210938 c 0
 237.977539062 777.666015625 402.373046875 846 500.11328125 846 c 0
 580.900390625 846 641.288085938 797.822265625 641.288085938 719.133789062 c 0
 641.288085938 604.078125 506.899414062 555.190429688 506.899414062 529.6875 c 0
 506.899414062 508.302734375 609.834960938 487.389648438 609.834960938 400.662109375 c 0
 609.834960938 237.368164062 308.895507812 28 183.66015625 28 c 0
EndSplineSet
EndChar

StartChar: four
Encoding: 52 52 12
Width: 564
Flags: HW
HStem: 331 502<158.346 366.372>
LayerCount: 2
Fore
SplineSet
403.762695312 811.169921875 m 0
 403.762695312 727.515625 241.7421875 592.471679688 193.553710938 492.29296875 c 1
 193.553710938 487.79296875 l 1
 204.198242188 482.268554688 209.71484375 476.860351562 221.623046875 476.860351562 c 0
 234.147460938 477.6015625 278.513671875 478.366210938 290.165039062 485.258789062 c 0
 366.462890625 530.390625 355.44140625 625 478.62890625 625 c 0
 499.243164062 625 531.836914062 622.712890625 531.836914062 605.795898438 c 0
 531.836914062 567.59765625 495.500976562 534.853515625 495.500976562 494.880859375 c 0
 495.500976562 473.908203125 527.771484375 483.294921875 527.771484375 469.077148438 c 0
 527.771484375 423.502929688 421.116210938 351.1328125 394.669921875 282.919921875 c 0
 385.008789062 259.846679688 348.438476562 150.62890625 338.784179688 127.874023438 c 0
 319.13671875 81.56640625 229.91796875 46 189.1640625 46 c 0
 158.275390625 46 133.91015625 56.509765625 133.91015625 85.5458984375 c 0
 133.91015625 169.047851562 217.193359375 232.467773438 228.557617188 315.01953125 c 0
 230.020507812 322.619140625 227.48828125 332.1328125 218.939453125 332.1328125 c 0
 209.708984375 332.1328125 184.553710938 331 158.345703125 331 c 0
 143.026367188 331 125.913085938 330.123046875 109.325195312 330.123046875 c 0
 68.5751953125 330.123046875 31 335.416992188 31 372.020507812 c 0
 31 420.270507812 84.1943359375 501.950195312 104.09375 541.748046875 c 0
 161.301757812 655.947265625 231.909179688 833 366.372070312 833 c 0
 389.290039062 833 403.762695312 832.602539062 403.762695312 811.169921875 c 0
EndSplineSet
EndChar

StartChar: five
Encoding: 53 53 13
Width: 621
Flags: HW
HStem: 42 97<163.316 235.669> 660.92 168.08<345.021 467.467>
LayerCount: 2
Fore
SplineSet
166.21484375 42 m 0
 76.765625 42 31 109.743164062 31 194.305664062 c 0
 31 323.688476562 138.639648438 458 252.510742188 458 c 0
 263.99609375 458 279.76171875 453.421875 279.76171875 444.596679688 c 0
 279.76171875 374.596679688 163.374023438 269.790039062 163.374023438 159.752929688 c 0
 163.374023438 148.197265625 167.439453125 139 182.698242188 139 c 0
 270.557617188 139 367.641601562 319.1484375 367.641601562 411.169921875 c 0
 367.641601562 472.481445312 345.475585938 492 275.782226562 492 c 0
 243.775390625 492 219.466796875 483 191.424804688 483 c 0
 164.720703125 483 152.541015625 494.588867188 152.541015625 519.565429688 c 0
 152.541015625 595.219726562 253.23046875 819.237304688 331.47265625 829 c 0
 371.80078125 834.03125 403.502929688 829.357421875 430.646484375 829.357421875 c 0
 481.546875 829.357421875 518.654296875 830.366210938 576.471679688 821.111328125 c 0
 586.924804688 819.438476562 590.163085938 814.91015625 590.163085938 805.870117188 c 0
 588.515625 762.405273438 528.055664062 724.434570312 505.622070312 705.946289062 c 0
 452.723632812 664.388671875 401.659179688 674.115234375 345.020507812 660.919921875 c 0
 328.349609375 657.036132812 319.060546875 627.153320312 317.475585938 617.4140625 c 1
 317.475585938 617 l 2
 317.475585938 612.916992188 320.891601562 605 328.141601562 605 c 0
 365.359375 605 405.001953125 621 442.556640625 621 c 0
 526.1640625 621 567.65234375 578.8984375 567.65234375 500.965820312 c 0
 567.65234375 318.029296875 323.560546875 42 166.21484375 42 c 0
EndSplineSet
EndChar

StartChar: six
Encoding: 54 54 14
Width: 642
Flags: HW
HStem: 41 122<221.139 348.885>
LayerCount: 2
Fore
SplineSet
326.98828125 499 m 0
 256.72265625 499 215.952148438 388.2578125 216.704101562 315.314453125 c 0
 216.704101562 237.427734375 266.71484375 163 328.930664062 163 c 0
 367.720703125 163 395.998046875 257.533203125 401.663085938 283.915039062 c 0
 408.495117188 315.560546875 421.484375 364.01953125 421.484375 388.548828125 c 0
 421.484375 447.796875 383.840820312 499 326.98828125 499 c 0
609.522460938 486.088867188 m 0
 609.522460938 279.65234375 412.47265625 41 228.88671875 41 c 0
 120.09375 41 31 85.162109375 31 191.58984375 c 0
 31 380.670898438 267.12890625 719.936523438 395.822265625 821.904296875 c 0
 412.8828125 835.420898438 445.576171875 837 472.68359375 837 c 0
 479.983398438 837 490.323242188 837.458007812 501.569335938 837.458007812 c 0
 532.596679688 837.458007812 570.522460938 833.97265625 570.522460938 807.7734375 c 0
 570.522460938 793.969726562 568.087890625 783.970703125 559.620117188 775.50390625 c 0
 500.912109375 710.584960938 413.838867188 645.583007812 415.471679688 614 c 1
 442.413085938 614 474.37109375 620 500.1875 620 c 0
 575.102539062 620 609.522460938 557.424804688 609.522460938 486.088867188 c 0
EndSplineSet
EndChar

StartChar: seven
Encoding: 55 55 15
Width: 629
Flags: HW
HStem: 807 20G<231.695 345.741>
LayerCount: 2
Fore
SplineSet
141.361328125 661.6640625 m 0
 144.603515625 707.704101562 200.995117188 827 259.25390625 827 c 0
 309.241210938 827 341.9609375 827.169921875 365.356445312 827.169921875 c 0
 422.916015625 827.169921875 424.03125 826.142578125 486.9921875 819.036132812 c 0
 530.041015625 813.295898438 596.979492188 810.0234375 596.979492188 771.537109375 c 0
 596.979492188 675.854492188 458.901367188 598.501953125 458.901367188 498.975585938 c 0
 458.901367188 482.26171875 470.774414062 478 482.595703125 478 c 0
 490.043945312 478 498.043945312 479 504.595703125 479 c 0
 515.69140625 479 520.166015625 477.872070312 518.639648438 465.657226562 c 0
 505.116210938 369.0625 390.384765625 387.65625 351.01953125 316.356445312 c 0
 331.90625 281.73828125 290.63671875 183.221679688 245.448242188 107.696289062 c 0
 217.830078125 61.53515625 134.25390625 40 88.595703125 40 c 0
 58.1845703125 40 30 46.8037109375 30 74.3349609375 c 0
 30.9140625 114.856445312 135.891601562 238.08984375 157.603515625 272.299804688 c 0
 162.006835938 279.237304688 161.516601562 288.823242188 161.678710938 296.759765625 c 0
 161.678710938 335.586914062 119.034179688 316.421875 119.034179688 350.34765625 c 0
 119.034179688 526.651367188 252.033203125 442.377929688 278.91796875 488.390625 c 2
 395.364257812 687.6875 l 1
 395.364257812 694.051757812 388.74609375 705.0390625 380.122070312 705.0390625 c 0
 307.6015625 705.0390625 240.811523438 650 173.866210938 650 c 0
 159.967773438 650.176757812 140.560546875 650.302734375 141.361328125 661.6640625 c 0
EndSplineSet
EndChar

StartChar: eight
Encoding: 56 56 16
Width: 639
Flags: HW
HStem: 28 90<197.381 279.328> 354 477<277.536 420.558>
LayerCount: 2
Fore
SplineSet
303.13671875 354 m 0
 245.897460938 354 205.9296875 179.592773438 205.9296875 151.359375 c 0
 205.9296875 133.043945312 211.704101562 118 235.16015625 118 c 0
 296.6953125 118 336.700195312 227.612304688 336.700195312 285.0859375 c 0
 336.700195312 316.7890625 326.948242188 354 303.13671875 354 c 0
469.28515625 732.772460938 m 0
 469.28515625 778.662109375 521.233398438 784.546875 550.665039062 785 c 0
 591.095703125 785 606.904296875 765.028320312 606.904296875 727.172851562 c 0
 606.904296875 605.482421875 451.442382812 499 451.442382812 479.404296875 c 0
 451.442382812 469.982421875 507.796875 381.89453125 507.796875 316.970703125 c 0
 507.796875 172.31640625 316.50390625 28 203.114257812 28 c 0
 112.618164062 28 31 70.6669921875 31 159.899414062 c 0
 31 313.159179688 231.275390625 419.978515625 231.275390625 431 c 4
 231.275390625 442.854492188 170.883789062 523.723632812 170.883789062 592.224609375 c 0
 170.883789062 730.591796875 303.486328125 831 414.811523438 831 c 0
 444.334960938 831 486.069335938 827.033203125 482.788085938 804.368164062 c 1
 482.788085938 804.10546875 l 1
 482.788085938 804.10546875 483.547851562 801.223632812 482.274414062 800.735351562 c 0
 404.768554688 771.0078125 357.224609375 693.501953125 357.224609375 601.060546875 c 0
 357.224609375 579.033203125 363.416015625 559 388.591796875 559 c 0
 453.140625 559 469.28515625 674.215820312 469.28515625 732.772460938 c 0
EndSplineSet
EndChar

StartChar: nine
Encoding: 57 57 17
Width: 631
Flags: HW
HStem: 392 69<295.6 317.995> 766 67<349.788 440.053>
LayerCount: 2
Fore
SplineSet
394.891601562 766 m 0
 327.471679688 766 270.404296875 624.321289062 270.404296875 564.5 c 0
 270.404296875 516.796875 290.697265625 461 336.663085938 461 c 0
 393.217773438 461 436.109375 656.026367188 436.109375 696.176757812 c 0
 436.109375 728.282226562 426.083984375 766 394.891601562 766 c 0
68.34375 37 m 0
 49.7744140625 37 30 39.15234375 30 54.8232421875 c 0
 30 90.203125 172.545898438 143 269.919921875 293.328125 c 0
 293.397460938 329.57421875 314.094726562 363.857421875 317.99609375 392 c 1
 269.45703125 369 221.30859375 355 174.594726562 355 c 0
 104.1875 355 73.169921875 423.396484375 73.169921875 492.137695312 c 0
 73.169921875 691.48828125 286.943359375 833 435.651367188 833 c 0
 551.934570312 833 598.653320312 732.651367188 598.653320312 622.548828125 c 0
 598.653320312 352.352539062 301.26171875 37 68.34375 37 c 0
EndSplineSet
EndChar

StartChar: equal
Encoding: 61 61 18
Width: 658
Flags: HW
HStem: 208 161<102.289 434.968> 447 162<118.806 441.545>
LayerCount: 2
Fore
SplineSet
70.91015625 497.01953125 m 0
 70.91015625 595.092773438 159.672851562 609 236.34765625 609 c 0
 367.735351562 609 378.372070312 608.9765625 473.250976562 600.018554688 c 0
 522.047851562 595.71875 626.174804688 595.033203125 626.174804688 548.633789062 c 0
 626.174804688 458.216796875 217.5078125 447 164.374023438 447 c 0
 115.715820312 446.075195312 70.91015625 454.12109375 70.91015625 497.01953125 c 0
591.24609375 299.60546875 m 0
 589.447265625 217.174804688 230.376953125 208 173.127929688 208 c 0
 112.327148438 208 31 208.754882812 31 266.599609375 c 0
 31.9560546875 334.52734375 127.268554688 361.133789062 169.709960938 368 c 0
 185.927734375 370.623046875 252.142578125 369 267.471679688 369 c 0
 300.4140625 369 324.04296875 369.349609375 343.689453125 369.349609375 c 0
 382.233398438 369.349609375 405.244140625 366.500976562 453.581054688 360.026367188 c 0
 507.111328125 352.856445312 591.24609375 345.307617188 591.24609375 299.60546875 c 0
EndSplineSet
EndChar

StartChar: question
Encoding: 63 63 19
Width: 523
Flags: HW
HStem: 735 98<233.421 303.266>
LayerCount: 2
Fore
SplineSet
491.483398438 669.078125 m 0
 491.483398438 534.084960938 354.671875 460.630859375 344.826171875 388 c 1
 430.567382812 388 l 2
 432.303710938 387.5078125 437.421875 377.106445312 436.6171875 370.666992188 c 0
 420.365234375 257.857421875 255.251953125 231 184.993164062 231 c 0
 140.75 231 82.0546875 234.295898438 82.0546875 273.940429688 c 0
 82.7998046875 308.864257812 122.467773438 333.857421875 144.442382812 362.833007812 c 0
 215.674804688 454.071289062 304.514648438 549.915039062 304.514648438 677.081054688 c 0
 304.514648438 703.91015625 296.514648438 735 269.19140625 735 c 0
 219.452148438 735 187.741210938 623.88671875 181.25 590.938476562 c 0
 178.546875 574.927734375 166.418945312 498.931640625 162.779296875 476.114257812 c 1
 106.942382812 479.895507812 81.775390625 547.927734375 81.775390625 608.356445312 c 0
 81.775390625 741.306640625 191.18359375 833 297.895507812 833 c 0
 402.665039062 833 491.483398438 771.948242188 491.483398438 669.078125 c 0
30 47.767578125 m 0
 30 146.708984375 124.107421875 206.638671875 203.171875 207 c 0
 229.140625 207 248.7109375 196.708984375 248.7109375 171.237304688 c 0
 248.7109375 70.0380859375 170.170898438 7.2451171875 79.5732421875 7 c 0
 51.767578125 7 30 20.6162109375 30 47.767578125 c 0
EndSplineSet
EndChar

StartChar: A
Encoding: 65 65 20
Width: 728
Flags: HW
HStem: 156 125<337.797 466.107> 178 103<391.349 466.574> 675 20G<480.841 585.234>
LayerCount: 2
Fore
SplineSet
355.4140625 281 m 2xa0
 466.650390625 281 l 1
 466.203125 294.129882812 466.779296875 312.240234375 466.779296875 334.150390625 c 0
 466.779296875 392.7890625 464.302734375 467.161132812 449.237304688 488.021484375 c 1
 408.858398438 434.000976562 369.771484375 352.549804688 337.98046875 298.684570312 c 0
 330.716796875 286.377929688 348.434570312 281 355.4140625 281 c 2xa0
83.9326171875 197.314453125 m 0
 83.9326171875 246.58984375 156.90234375 289 204.951171875 289 c 0
 215.755859375 289 221.5625 289.76171875 224.0390625 293 c 0
 285.0703125 372.811523438 333.698242188 470.918945312 388.854492188 555.325195312 c 0
 391.114257812 559.153320312 431.795898438 600.609375 431.795898438 621.424804688 c 0
 431.795898438 637.485351562 412.353515625 662.594726562 412.353515625 676.635742188 c 0
 412.353515625 697.387695312 485.21484375 695 509.786132812 695 c 0
 660.68359375 695 608.463867188 468.9921875 631.336914062 299.31640625 c 0
 642.827148438 214.077148438 701.479492188 120.604492188 693.419921875 56.8193359375 c 0
 689.029296875 22.0751953125 612.18359375 4 574.290039062 4 c 0
 496.44921875 4 493.49609375 103.513671875 480.274414062 172.590820312 c 0
 479.466796875 176.807617188 474.616210938 178 472.658203125 178 c 0x60
 444.313476562 178 424.38671875 156 390.587890625 156 c 0
 355.692382812 156 322.47265625 159 287.021484375 159 c 0
 251.302734375 159 253.107421875 140.375 243.834960938 125.708984375 c 0
 194.299804688 47.0732421875 155.372070312 4.9921875 69.455078125 4.9921875 c 0
 49.302734375 4.9921875 28 5.79296875 28 23.822265625 c 0
 28 76.8779296875 124.3359375 125.079101562 124.3359375 158.516601562 c 0
 124.3359375 172.6484375 83.9326171875 171.879882812 83.9326171875 197.314453125 c 0
EndSplineSet
EndChar

StartChar: B
Encoding: 66 66 21
Width: 629
Flags: HW
HStem: -11 107<142.09 303.372> 623 89<353.676 429.056>
VStem: 394.046 155.638<201.678 334.426> 436.984 161.603<530.904 614.605>
LayerCount: 2
Fore
SplineSet
84.275390625 101.2421875 m 1xe0
 48.7490234375 102.998046875 28 104.791015625 28 138.467773438 c 0
 28 206.149414062 68.5634765625 270.247070312 93.9345703125 331.7421875 c 0
 118.333984375 390.881835938 142.932617188 450.365234375 170.141601562 506.916992188 c 0
 178.674804688 524.749023438 195.713867188 543.801757812 198.434570312 568.000976562 c 1
 181.397460938 568.000976562 161.53125 555.83203125 148.331054688 555.83203125 c 0
 140.149414062 555.83203125 136.904296875 558.502929688 138.276367188 566.157226562 c 0
 164.654296875 685.38671875 322.395507812 712 423.002929688 712 c 0
 482.079101562 712 598.586914062 690.965820312 598.586914062 609.463867188 c 0xd0
 598.586914062 472.946289062 436.619140625 419.17578125 436.619140625 410.999023438 c 0
 436.619140625 409.29296875 549.684570312 366.1640625 549.684570312 293.831054688 c 0
 549.684570312 143.37109375 384.267578125 -11 168.713867188 -11 c 0
 121.234375 -11 51.0322265625 6.7744140625 51.0322265625 41.3525390625 c 0
 51.0322265625 64.2177734375 81.23828125 77.142578125 84.275390625 95.6220703125 c 1
 84.275390625 101.2421875 l 1xe0
264.330078125 379 m 1
 234.010742188 292.645507812 192.211914062 198.547851562 134.440429688 132.98046875 c 0
 133.67578125 132.112304688 133.65625 129.51953125 133.65625 127.029296875 c 0
 133.65625 123.060546875 135.36328125 119.944335938 141.48046875 118.000976562 c 0
 172.072265625 108.28125 203.887695312 96 238.594726562 96 c 0
 314.483398438 96 394.045898438 185.374023438 394.045898438 272.166992188 c 0xe0
 394.045898438 355.904296875 331.9375 354.689453125 273.702148438 379 c 1
 264.330078125 379 l 1
280.561523438 424.573242188 m 0
 277.25390625 415.82421875 286.763671875 412 291.004882812 412 c 0
 354.255859375 412 436.984375 507.34765625 436.984375 566.813476562 c 0xd0
 436.984375 599.748046875 423.037109375 623 385.150390625 623 c 0
 354.642578125 623 354.96484375 611.625 345.685546875 585.811523438 c 0
 324.375 531.916992188 300.782226562 478.055664062 280.561523438 424.573242188 c 0
EndSplineSet
EndChar

StartChar: C
Encoding: 67 67 22
Width: 662
Flags: HW
HStem: -10 116<153.874 321.422> 631 81<427.779 557.005>
VStem: 28 191.139<112.772 271.353> 481.074 150.672<507.296 629.662>
LayerCount: 2
Back
SplineSet
205.578125 -8.2431640625 m 4
 103.750976562 5.849609375 36.65625 102.078125 52.9619140625 221.500976562 c 4
 82.623046875 437.064453125 353.388671875 712 545.009765625 712 c 4
 552.880859375 712 560.388671875 711.490234375 567.5078125 710.489257812 c 4
 629.223632812 701.810546875 663.434570312 656.58203125 652.059570312 578.702148438 c 4
 631.274414062 432.216796875 475.327148438 244 373.430664062 244 c 4
 359.567382812 244 353.393554688 247.372070312 355.86328125 264.291015625 c 5
 358.33984375 282.953125 397.3125 320.084960938 411.734375 346.545898438 c 4
 450.956054688 418.080078125 491.998046875 527.401367188 502.81640625 608.248046875 c 5
 504.696289062 619.8359375 504.10546875 631 489.24609375 631 c 4
 469.232421875 631 448.389648438 605.651367188 437.244140625 594.950195312 c 5
 336.120117188 492.112304688 263.68359375 348.620117188 244.032226562 204.538085938 c 4
 242.001953125 188.580078125 239.555664062 172.280273438 239.498046875 157.48046875 c 4
 239.388671875 129.627929688 249.197265625 106 285.838867188 106 c 4
 398.385742188 106 548.141601562 250 587.009765625 250 c 4
 593.184570312 250 598.452148438 247.068359375 597.06640625 238.754882812 c 5
 592.349609375 204.791015625 546.66796875 131.890625 518.216796875 107.814453125 c 5
 462.9375 58.849609375 299.38671875 -10 231.337890625 -10 c 4
 222.515625 -10 213.920898438 -9.40234375 205.578125 -8.2431640625 c 4
EndSplineSet
Fore
SplineSet
28 185.857421875 m 0
 28 430.47265625 323.24609375 712 522.50390625 712 c 0
 591.505859375 712 631.74609375 674.630859375 631.74609375 607.328125 c 0
 631.74609375 445.8125 452.474609375 244 350.924804688 244 c 0
 339.05859375 244 332.825195312 246.470703125 332.825195312 257.793945312 c 0
 332.825195312 283.846679688 372.971679688 316.717773438 389.228515625 346.545898438 c 0
 426.995117188 415.42578125 481.07421875 534.565429688 481.07421875 616.413085938 c 0
 481.07421875 624.57421875 478.013671875 631 466.740234375 631 c 0
 397.689453125 631 219.138671875 304.732421875 219.138671875 166.609375 c 0
 219.138671875 129.522460938 232.01171875 106 263.333007812 106 c 0
 375.879882812 106 525.635742188 250 564.50390625 250 c 0
 570.678710938 250 575.946289062 247.068359375 574.560546875 238.754882812 c 0
 556.17578125 106.370117188 340.487304688 -10 208.83203125 -10 c 0
 98.916015625 -10 28 76.5791015625 28 185.857421875 c 0
EndSplineSet
EndChar

StartChar: D
Encoding: 68 68 23
Width: 719
Flags: HW
HStem: 584 111<403.943 462.947>
LayerCount: 2
Fore
SplineSet
198.134765625 83.484375 m 0
 198.134765625 71.1904296875 205.267578125 75.9150390625 218.633789062 75.9150390625 c 0
 400.11328125 75.9150390625 514.1171875 234.666992188 514.1171875 413.31640625 c 0
 514.1171875 495.985351562 451.415039062 632.924804688 407.274414062 584 c 0
 313.759765625 480.348632812 291.603515625 276.071289062 228.34375 125.736328125 c 0
 225.057617188 117.927734375 198.134765625 93.9296875 198.134765625 83.484375 c 0
247.692382812 561.938476562 m 2
 247.692382812 571 l 1
 204.314453125 571 158.875976562 540 117.438476562 540 c 0
 111.03515625 540 107.811523438 541.822265625 109.379882812 551.232421875 c 0
 128.614257812 684.916015625 314.12109375 695 438.53125 695 c 0
 594.984375 695 688.580078125 631.603515625 688.580078125 488.317382812 c 0
 688.580078125 211.263671875 451.020507812 4 202.151367188 4 c 0
 135.500976562 4 28 13.146484375 28 65.7119140625 c 0
 28 103.052734375 63.146484375 156.17578125 80.05078125 194.068359375 c 0
 132.771484375 312.247070312 166.935546875 436.7109375 230.6328125 547.213867188 c 0
 231.826171875 549.256835938 247.692382812 552.954101562 247.692382812 561.938476562 c 2
EndSplineSet
EndChar

StartChar: E
Encoding: 69 69 24
Width: 664
Flags: HW
HStem: -12 119<215.25 324.412> 233 129<268.129 473.485> 397 316<395.222 489.707>
LayerCount: 2
Fore
SplineSet
293.436523438 107 m 0
 387.063476562 107 478.755859375 229 562.4140625 229 c 0
 567.565429688 229 567.28125 230.083007812 566.44921875 222.59375 c 0
 561.60546875 184.811523438 539.759765625 133.37890625 511.893554688 104.502929688 c 0
 460.91015625 51.1552734375 289.760742188 -12 220.43359375 -12 c 0
 108.905273438 -12 28 67.2177734375 28 178.1015625 c 0
 28 403.809570312 329.280273438 713 514.4140625 713 c 0
 581.081054688 713 633.6640625 670.288085938 633.6640625 605.083984375 c 0
 633.6640625 489.578125 493.481445312 399.7421875 403.428710938 397 c 0
 395.221679688 397 390.372070312 398.62109375 390.748046875 402.475585938 c 0
 392.25390625 416.405273438 438.827148438 460.939453125 452.328125 483.344726562 c 0
 477.833984375 524.666992188 504.450195312 580.024414062 510.46484375 627.400390625 c 0
 511.46875 636.677734375 509.3046875 649.892578125 496.499023438 648.985351562 c 0
 403.251953125 642.379882812 268.12890625 457.663085938 268.12890625 362 c 1
 536.4140625 362 l 2
 548.875 362 558.595703125 354.565429688 558.595703125 344.706054688 c 0
 558.595703125 316.674804688 465.604492188 233 415.109375 233 c 2
 245.741210938 233 l 2
 233.763671875 233 236.447265625 208.359375 236.447265625 198.079101562 c 0
 236.447265625 154.681640625 252.392578125 107 293.436523438 107 c 0
EndSplineSet
EndChar

StartChar: F
Encoding: 70 70 25
Width: 560
Flags: HW
HStem: 237 122<319.204 429.063> 551.932 135.068<393.244 494.281> 676 20G<279.272 311.673>
LayerCount: 2
Fore
SplineSet
472.216796875 339.145507812 m 0
 472.216796875 308.916015625 432.254882812 236.000976562 395.768554688 236.000976562 c 0
 384.086914062 236.000976562 359.37890625 237 333.654296875 237 c 0
 330.541015625 237 327.356445312 237.006835938 324.143554688 237.006835938 c 0
 296.2421875 237.006835938 266.220703125 236.50390625 262.681640625 226.76953125 c 0
 235.41015625 151.951171875 168.999023438 4 83.7275390625 4 c 0
 52.7041015625 4 28 25.7861328125 28 56.3916015625 c 0
 28 97.25390625 56.1337890625 130.49609375 71.3603515625 169.119140625 c 0
 103.357421875 249.112304688 137.268554688 327.90625 174.24609375 406.859375 c 0
 181.857421875 423.541015625 234.444335938 503.606445312 234.444335938 534.23828125 c 0
 234.444335938 560.546875 147.665039062 534.625976562 150.169921875 579.231445312 c 0
 152.029296875 612.322265625 196.431640625 645.477539062 228.107421875 678.365234375 c 0
 243.783203125 693.733398438 269.202148438 696 289.341796875 696 c 0xa0
 334.004882812 696 380.267578125 687 428.727539062 687 c 2
 454.727539062 687 l 2
 495.067382812 687 530.450195312 682.830078125 530.450195312 646.026367188 c 0
 530.450195312 561.674804688 437.638671875 581.458007812 393.244140625 551.931640625 c 0
 348.793945312 522.368164062 346.583007812 435.631835938 319.204101562 378.140625 c 1
 319.204101562 371.62109375 l 2
 318.994140625 370.768554688 314.643554688 359 324.020507812 359 c 0
 357.05078125 359 390.774414062 362 422.727539062 362 c 0
 447.6015625 362 472.216796875 361.255859375 472.216796875 339.145507812 c 0
EndSplineSet
EndChar

StartChar: G
Encoding: 71 71 26
Width: 643
Flags: HW
HStem: -152 79<195.097 263.505> 32.3418 19.6582<142.312 152.772> 632 80<433.046 512.651>
LayerCount: 2
Fore
SplineSet
69.6611328125 -75.900390625 m 0
 69.6611328125 -35.1904296875 154.874023438 11 172.373046875 11 c 0
 195.302734375 11 212.6875 -73 247.201171875 -73 c 0
 266.263671875 -73 318.284179688 82.51953125 321.009765625 100.509765625 c 0
 321.713867188 106.380859375 322.08984375 114.38671875 315.2265625 114.38671875 c 0
 248.224609375 114.38671875 208.556640625 32.341796875 147.079101562 32.341796875 c 0
 63.3359375 32.341796875 28 103.703125 28 185.5625 c 0
 28 434.045898438 311.904296875 712 508.079101562 712 c 0
 569.165039062 712 612.567382812 689.495117188 612.567382812 630.3671875 c 0
 612.567382812 527.3515625 519.649414062 437 433.78515625 437 c 0
 429.754882812 437 428.190429688 439.334960938 428.190429688 442.991210938 c 0
 428.190429688 491.737304688 481.086914062 492 481.086914062 610.458007812 c 0
 481.086914062 623.44921875 477.685546875 632 468.76953125 632 c 0
 383.88671875 632 212.642578125 368.7578125 212.642578125 235.8828125 c 0
 212.642578125 202.403320312 223.077148438 164.03125 262.75 164.03125 c 0
 312.401367188 164.03125 373.940429688 289.342773438 399.635742188 321.865234375 c 0
 424.979492188 353.94140625 522.357421875 382.821289062 559.079101562 382.821289062 c 0
 572.42578125 382.821289062 577.033203125 379.092773438 577.033203125 369.358398438 c 0
 572.114257812 315.516601562 544.391601562 268.868164062 524.450195312 219.629882812 c 0
 462.447265625 66.5380859375 379.390625 -152 197.639648438 -152 c 4
 144.614257812 -152 69.6611328125 -118.701171875 69.6611328125 -75.900390625 c 0
EndSplineSet
EndChar

StartChar: H
Encoding: 72 72 27
Width: 818
Flags: HW
HStem: 231.937 129.063<328.302 430.5> 688 20G<362.292 376.322 687.006 730.501>
LayerCount: 2
Fore
SplineSet
788.4609375 644.049804688 m 0
 788.4609375 542.369140625 673.637695312 464.928710938 673.637695312 371.173828125 c 0
 673.637695312 353.513671875 726.979492188 357.891601562 726.979492188 329.450195312 c 0
 726.979492188 301.255859375 666.7421875 243.1328125 643.326171875 232.896484375 c 0
 632.751953125 228.694335938 618.819335938 235.099609375 610.752929688 220.141601562 c 0
 562.407226562 130.5 527.471679688 -7 405.762695312 -7 c 0
 377.899414062 -7 367.8125 8.1943359375 367.8125 30.7900390625 c 0
 367.8125 88.8359375 434.376953125 195.727539062 437.159179688 219.365234375 c 1
 437.159179688 219.682617188 l 2
 437.411132812 219.643554688 438.915039062 231.936523438 429.915039062 231.936523438 c 0
 382.036132812 231.936523438 331.392578125 235 283.119140625 235 c 0
 270.905273438 235 265.248046875 226.666992188 262.891601562 219.598632812 c 0
 225.83203125 126.809570312 191.908203125 -5 101.715820312 -5 c 0
 62.1083984375 -5 28 7.943359375 28 46.44140625 c 0
 28.8408203125 102.833984375 87.873046875 154.422851562 87.873046875 208.36328125 c 0
 87.873046875 228.16796875 60.263671875 221.439453125 60.263671875 245.512695312 c 0
 60.263671875 277.6484375 95.96875 328.96484375 120.970703125 342.071289062 c 0
 142.286132812 353.245117188 156.62890625 378.807617188 165.896484375 401.573242188 c 0
 199.046875 483.013671875 257.870117188 708 373.384765625 708 c 0
 413.708984375 708 438.446289062 692.7578125 438.446289062 652.43359375 c 0
 438.446289062 539.741210938 328.897460938 479.0703125 328.897460938 369.935546875 c 0
 328.897460938 363.870117188 331.196289062 360 337.083007812 360 c 0
 390.12890625 360 452.55859375 333.143554688 496.028320312 361 c 0
 569.369140625 408 593.82421875 694.088867188 728.715820312 697 c 0
 763.270507812 697 788.4609375 678.78515625 788.4609375 644.049804688 c 0
EndSplineSet
EndChar

StartChar: I
Encoding: 73 73 28
Width: 632
Flags: W
HStem: -10 93<176.163 210.952> 594 95<294.721 400.866>
VStem: 28 134.59<89.27 199.894>
LayerCount: 2
Fore
SplineSet
143.072265625 569.944335938 m 0
 143.072265625 639.073242188 233.212890625 689 304.9140625 689 c 2
 437.927734375 689 l 2
 482.857421875 689 601.73828125 670.19921875 601.73828125 646.713867188 c 0
 601.73828125 599.7421875 567.615234375 532.739257812 549.044921875 490.028320312 c 0
 491.129882812 362.21484375 429.809570312 238.465820312 355.193359375 120.692382812 c 0
 310.454101562 48.5654296875 267.083007812 -10 189.375976562 -10 c 0
 102.55078125 -10 28 41.6669921875 28 126.559570312 c 0
 28 171.474609375 62.11328125 261 96.615234375 261 c 0
 129.517578125 261 153.479492188 159.296875 162.58984375 137.014648438 c 0
 165.381835938 130.541992188 178.252929688 83 194.23046875 83 c 0
 216.8125 83 312.3515625 334.541015625 324.90625 365.021484375 c 0
 354.170898438 440.346679688 380.985351562 511.3984375 400.866210938 594 c 1
 321.251953125 600.463867188 241.396484375 538 166.07421875 538 c 0
 152.206054688 538 143.072265625 553.926757812 143.072265625 569.944335938 c 0
EndSplineSet
EndChar

StartChar: J
Encoding: 74 74 29
Width: 516
Flags: HW
HStem: -50 75<70.4207 131.628>
LayerCount: 2
Fore
SplineSet
131.264648438 588.334960938 m 0
 131.264648438 673.563476562 214.077148438 704.079101562 317.413085938 704.079101562 c 0
 329.395507812 704.079101562 342.262695312 704 356.138671875 704 c 0
 405.470703125 704 485.94921875 695.264648438 485.94921875 659.30078125 c 0
 485.94921875 623.086914062 462.822265625 579.571289062 450.970703125 544.540039062 c 0
 404.086914062 412.108398438 347.962890625 281.493164062 283.122070312 156.16796875 c 0
 245.293945312 84.203125 177.768554688 -50 97.6884765625 -50 c 0
 50.517578125 -50 28 26.916015625 28 83.5927734375 c 0
 28 165.049804688 68.59765625 271 143.688476562 271 c 0
 150.280273438 271 152.693359375 265.185546875 152.693359375 256.604492188 c 0
 152.693359375 175.299804688 112.563476562 117.944335938 105.169921875 36.8681640625 c 0
 105.169921875 30.427734375 107.020507812 25 113.688476562 25 c 0
 120.510742188 25 124.83984375 30.19921875 127.145507812 34.87890625 c 0
 207.36328125 206.951171875 259.122070312 393.153320312 308.290039062 583.565429688 c 0
 308.791015625 585.688476562 310.420898438 597.430664062 300.68359375 597.430664062 c 0
 258.998046875 597.430664062 213.48828125 561.907226562 168.737304688 561.907226562 c 0
 148.088867188 561.907226562 131.264648438 568.603515625 131.264648438 588.334960938 c 0
EndSplineSet
EndChar

StartChar: K
Encoding: 75 75 30
Width: 781
Flags: HW
HStem: 316 398<306.293 415.319> 679.819 20G<668.126 723.508>
LayerCount: 2
Fore
SplineSet
461.916992188 684.564453125 m 0
 461.916992188 607.365234375 380.709960938 515.802734375 360.31640625 437.181640625 c 1
 366.533203125 437.181640625 385.26171875 450.814453125 391.221679688 456.96484375 c 0
 467.333984375 539.568359375 614.365234375 699.819335938 721.885742188 699.819335938 c 0
 739.252929688 699.819335938 751.2421875 696.870117188 751.2421875 680.916015625 c 0
 751.2421875 582.244140625 559.390625 505.932617188 478.87109375 442.075195312 c 0
 467.852539062 433.336914062 471.770507812 420.000976562 471.770507812 404.735351562 c 0
 471.770507812 284.896484375 516.814453125 184.659179688 576.583007812 109.4296875 c 0
 590.899414062 92.197265625 628.591796875 74.0146484375 628.591796875 61.314453125 c 0
 628.591796875 25.84765625 524.44921875 -13 490.90625 -13 c 0
 434.611328125 -13 387.971679688 15.9033203125 357.291992188 61.173828125 c 0x40
 314.935546875 122.28515625 330.095703125 316 315.952148438 316 c 0
 296.6328125 316 244.62109375 198.2421875 234.96484375 180.37890625 c 0
 200.440429688 115.451171875 144.963867188 10 54.8857421875 10 c 0
 35.0283203125 10 28 21.5517578125 28 38.19140625 c 0
 28 73.5146484375 59.6728515625 131.765625 67.51171875 151.102539062 c 0
 124.537109375 290.163085938 179.908203125 431.997070312 245.66796875 566.8046875 c 0
 288.09375 655.140625 316.987304688 714 412.275390625 714 c 0x80
 439.069335938 714 461.916992188 709.342773438 461.916992188 684.564453125 c 0
EndSplineSet
EndChar

StartChar: L
Encoding: 76 76 31
Width: 468
Flags: HW
HStem: 6 114<199.596 264.799> 677 20G<374.772 397.189>
LayerCount: 2
Fore
SplineSet
199.383789062 135.788085938 m 0
 199.383789062 121.930664062 211.456054688 116.215820312 218.856445312 117.822265625 c 2
 344.04296875 144.999023438 l 1
 356.2421875 144.778320312 359.138671875 142.385742188 357.579101562 130.693359375 c 0
 350.967773438 83.470703125 282.450195312 14.783203125 233.114257812 10.984375 c 0
 201.135742188 7.99609375 153.088867188 6 113.53125 6 c 0
 72.4189453125 6 28 16.0341796875 28 53.349609375 c 0
 28 136.604492188 224.807617188 629.563476562 278.561523438 668.807617188 c 0
 310.45703125 692.09375 356.012695312 697 393.53125 697 c 0
 420.35546875 697 437.75390625 696.768554688 437.75390625 668.97265625 c 0
 437.75390625 574.700195312 367.256835938 493.958984375 326.091796875 411.301757812 c 0
 280.23046875 319.216796875 199.383789062 239.401367188 199.383789062 135.788085938 c 0
EndSplineSet
EndChar

StartChar: M
Encoding: 77 77 32
Width: 1073
Flags: W
HStem: 678 20G<482.01 534.062 966.351 996.125>
VStem: 417.935 176.633<454.952 649.641> 430.11 161.935<266.435 441> 787.897 185.125<181.793 399.677> 797.864 175.158<209.417 408.342>
LayerCount: 2
Fore
SplineSet
490.852539062 698 m 0xc0
 577.270507812 698 594.567382812 614.586914062 594.567382812 532.881835938 c 0xc0
 594.567382812 490.8046875 592.044921875 428.170898438 592.044921875 374.5 c 0
 592.044921875 320.258789062 591.93359375 264 612.283203125 264 c 0
 632.43359375 264 660.52734375 344.221679688 671.895507812 364.592773438 c 0
 726.3046875 462.778320312 781.48046875 566.530273438 848.935546875 653.650390625 c 0
 880.8984375 694.932617188 945.416992188 698 987.28515625 698 c 0
 1004.96582031 698 1016.89355469 696.788085938 1016.89355469 679.067382812 c 0
 1016.89355469 566.056640625 973.961914062 453.688476562 973.022460938 327.212890625 c 0
 973.022460938 255.591796875 983.849609375 187.008789062 1018.06640625 133.315429688 c 0
 1025.71484375 121.294921875 1041.56933594 107.265625 1041.56933594 93.5458984375 c 0
 1041.56933594 65.2744140625 956.510742188 9 925.28515625 9 c 0
 829.435546875 9 787.897460938 117.559570312 787.897460938 207.337890625 c 0xb0
 787.897460938 251.641601562 793.735351562 298.884765625 797.864257812 346.563476562 c 1
 797.864257812 347 l 2
 797.864257812 362.24609375 800.431640625 378.728515625 800.431640625 391.618164062 c 0
 800.431640625 397.721679688 792.807617188 407.234375 791.124023438 411.213867188 c 1
 580.616210938 58.921875 l 1
 558.57421875 32.1240234375 542.555664062 4 513.559570312 4 c 0
 491.842773438 4 478.954101562 29.28515625 468.576171875 50.3095703125 c 0
 433.129882812 116.592773438 425.59765625 202.500976562 425.59765625 286.049804688 c 0
 425.59765625 319.682617188 430.110351562 351.21875 430.110351562 384.359375 c 0xa8
 430.110351562 403.251953125 424.708007812 421.577148438 424.708007812 436 c 2
 424.708007812 441 l 1
 328.762695312 355.046875 244.674804688 8.0009765625 52.28515625 6 c 0
 40.64453125 6 28 11.42578125 28 22.583984375 c 0
 28 36.1953125 44.8349609375 48.18359375 54.1650390625 59.8466796875 c 0
 177.002929688 209.104492188 271.138671875 383.197265625 372.517578125 547.176757812 c 0
 386.985351562 570.579101562 417.934570312 603.978515625 417.934570312 628.498046875 c 0
 417.934570312 647.8828125 398.01171875 665.313476562 398.01171875 668.327148438 c 0
 398.01171875 691.770507812 473.166992188 698 490.852539062 698 c 0xc0
EndSplineSet
EndChar

StartChar: N
Encoding: 78 78 33
Width: 894
Flags: HW
HStem: -10 21G<40.7769 100.586> 8 306.039<470.146 604.978> 682 20G<766.687 853.615>
LayerCount: 2
Back
SplineSet
42.0244140625 -10 m 4
 30.4682662768 -10 23.4694906897 -4.62209512157 23.4694906897 6.86766471452 c 4
 23.4694906897 8.62557843539 23.6333213864 10.5265613893 23.9697265625 12.5732421875 c 4
 25.72265625 25.904296875 35.650390625 36.0673828125 44.2060546875 49.08203125 c 5
 102.49609375 140.809570312 146.438449296 235.163085938 193.654744907 330.506835938 c 5
 237.891749027 423.765625 286.046396599 514.958007812 330.37848449 608.416015625 c 4
 330.732887637 609.163085938 l 5
 330.837575829 609.98828125 l 4
 334.411185409 638.238994219 301.232490264 645.125358513 301.232490264 658.401074671 c 4
 301.232490264 686.717478076 411.224639772 708 438.079583754 708 c 4
 508.24180232 708 511.845381196 668.630859375 518.771129404 617.3203125 c 4
 518.8325977 616.869140625 l 5
 518.972822252 616.436523438 l 4
 544.923968636 536.297851562 530.008302339 399.564453125 577.415725934 316.490234375 c 4
 578.640289651 314.345703125 l 5
 581.059643379 314.0390625 l 4
 591.181743 312.751953125 595.626669183 318.272460938 599.529906004 324.2265625 c 4
 599.761372557 324.579101562 l 5
 599.930410373 324.965820312 l 4
 661.076958654 464.600585938 704.99701687 702 843.024414062 702 c 4
 855.14436447 702 859.263632565 696.285859653 859.263632565 684.395277555 c 4
 859.263632565 680.493807303 858.820156254 675.927387467 858.0703125 670.6796875 c 5
 853.205078125 633.701171875 836.537109375 600.2109375 820.486328125 565.099609375 c 4
 758.547851562 431.232421875 697.222237818 310.166992188 635.227619135 171.088867188 c 5
 627.427868588 154.09375 574.236662479 8 517.742495882 8 c 4
 472.086918734 8 422.716351423 177.151367188 412.35414127 218.2421875 c 5
 401.702838035 274.364257812 393.559249205 309.840820312 386.912989657 341.64453125 c 5
 385.9496662 360.229492188 379.425382803 450 364.317628079 450 c 4
 343.453943664 450 267.179471375 238.801757812 248.711129634 196.5703125 c 4
 206.224051078 100.034179688 150.087168953 -10 42.0244140625 -10 c 4
EndSplineSet
Fore
SplineSet
368.84765625 450 m 0
 272.666992188 342.708984375 243.51953125 -1.6689453125 46.5546875 -10 c 0xa0
 34.9990234375 -10 28 -4.6220703125 28 6.8671875 c 0
 28 24.8564453125 39.072265625 34.380859375 48.736328125 49.08203125 c 0
 154.729492188 229.865234375 246.078125 417.435546875 335.263671875 609.163085938 c 0
 347.45703125 635.375976562 305.762695312 644.911132812 305.762695312 658.401367188 c 0
 305.762695312 686.612304688 414.940429688 708.000976562 442.307617188 708.000976562 c 0
 609.975585938 708.000976562 549.84765625 314.0390625 585.58984375 314.0390625 c 0
 624.366210938 314.0390625 685.818359375 702 847.5546875 702 c 0
 859.674804688 702 863.793945312 696.286132812 863.793945312 684.395507812 c 0
 863.793945312 639.44921875 842.125976562 603.494140625 825.016601562 565.099609375 c 0
 633.897460938 136.200195312 580.088867188 8 522.2734375 8 c 0x60
 418.01953125 8 377.862304688 460.055664062 368.84765625 450 c 0
EndSplineSet
EndChar

StartChar: O
Encoding: 79 79 34
Width: 671
Flags: W
HStem: -10 90<188.109 338.845> 629.431 82.5693<427.03 525.891>
VStem: 28 186.583<120.261 309.141>
LayerCount: 2
Fore
SplineSet
489.157226562 357.592773438 m 0
 490.620117188 411.55859375 459.264648438 460.979492188 454.797851562 504.341796875 c 0
 450.358398438 547.440429688 553.970703125 608.510742188 585.591796875 611 c 0
 588.875976562 611 591.977539062 610.725585938 594.903320312 610.1953125 c 1
 592.883789062 609.247070312 590.591796875 607.48046875 590.591796875 605 c 2
 590.591796875 600 l 1
 590.591796875 600 602.591796875 599.40234375 602.591796875 606 c 2
 602.591796875 608.081054688 l 1
 632.616210938 596.7421875 640.690429688 554.0546875 640.690429688 509.861328125 c 0
 640.690429688 296.510742188 539.725585938 125.794921875 380.045898438 32.4287109375 c 0
 340.073242188 9.056640625 295.114257812 -10 252.780273438 -10 c 0
 126.076171875 -7.6142578125 28 52.525390625 28 181.51953125 c 0
 28 452.046875 310.07421875 706.458007812 535.591796875 712 c 0
 552.845703125 712 574.763671875 709.525390625 574.763671875 696.20703125 c 0
 574.763671875 666.543945312 495.791015625 635.397460938 472.25390625 629.430664062 c 0
 370.5546875 603.650390625 287.98046875 496.658203125 248.3046875 407.153320312 c 0
 221.98046875 347.767578125 214.583007812 292.350585938 214.583007812 215.248046875 c 0
 214.583007812 146.400390625 241.2109375 80 298.552734375 80 c 0
 393.880859375 80 485.85546875 235.78515625 489.157226562 357.592773438 c 0
594.903320312 615.1953125 m 1
 597.61328125 614.704101562 600.173828125 613.994140625 602.591796875 613.081054688 c 1
 602.591796875 616 l 2
 602.080078125 616 596.034179688 615.725585938 594.903320312 615.1953125 c 1
EndSplineSet
EndChar

StartChar: P
Encoding: 80 80 35
Width: 657
Flags: HW
HStem: -10 21G<40.5437 70.4495> 564 129<366.813 440.262>
LayerCount: 2
Fore
SplineSet
458.370117188 473.524414062 m 0
 459.524414062 508.263671875 450.197265625 564 419.19140625 564 c 0
 415.223632812 564 410.684570312 561.341796875 409.10546875 558.436523438 c 0
 361.954101562 471.606445312 340.276367188 398.661132812 294.141601562 290.124023438 c 0
 243.056640625 169.939453125 217.25390625 -10 53.7412109375 -10 c 0
 33.9423828125 -10 28 3.8017578125 28 22.4052734375 c 0
 29.947265625 82.9267578125 64.87890625 128.59765625 85.3740234375 181.119140625 c 0
 126.370117188 282.112304688 171.819335938 381.224609375 215.477539062 481.063476562 c 0
 227.772460938 509.1796875 258.26171875 555.961914062 262.495117188 584.239257812 c 0
 263.349609375 587.754882812 263.296875 600 252.823242188 600 c 0
 241.068359375 600 195.870117188 578 183.74609375 578 c 0
 177.325195312 578 172.111328125 588.77734375 173.956054688 599.209960938 c 0
 185.844726562 687.56640625 334.866210938 693 398.759765625 693 c 0
 523.604492188 693 627.198242188 643.78515625 627.198242188 518.850585938 c 0
 627.198242188 354.739257812 459.590820312 190.974609375 324.818359375 185 c 0
 307.168945312 185 287.548828125 186.458984375 287.548828125 202.092773438 c 0
 287.548828125 232.162109375 323.034179688 240.625 344.256835938 256.985351562 c 0
 416.6875 311.5234375 455.196289062 364.159179688 458.370117188 473.524414062 c 0
EndSplineSet
EndChar

StartChar: Q
Encoding: 81 81 36
Width: 698
Flags: HW
HStem: 60 48.6221<328.322 422.072> 691 20G<497.466 544.221>
LayerCount: 2
Fore
SplineSet
422.072265625 60 m 0
 365.283203125 60 300.905273438 -11.837890625 231.829101562 -10 c 0
 107.798828125 -6.69921875 28 68.9775390625 28 193.025390625 c 0
 28 362.673828125 126.04296875 484.215820312 235.100585938 590.616210938 c 0
 303.814453125 657.65625 454.810546875 711 540.12109375 711 c 0
 565.177734375 711 596.30078125 710.71484375 596.30078125 687.744140625 c 0
 596.30078125 639.989257812 489.708984375 623.265625 459.391601562 611.3125 c 0
 324.6875 554.895507812 220.874023438 411.994140625 220.874023438 250.380859375 c 0
 220.874023438 172.639648438 256.7890625 104.2421875 339.120117188 108.120117188 c 0
 355.166015625 108.120117188 383.2421875 111.250976562 383.2421875 133.787109375 c 0
 383.2421875 157.93359375 352.96484375 197.252929688 339.3203125 208.880859375 c 0
 320.553710938 224.947265625 292.469726562 222.7421875 292.469726562 242.149414062 c 0
 292.469726562 280.4765625 327.880859375 284.069335938 359.633789062 284.069335938 c 0
 412.666992188 284.069335938 443.82421875 248.186523438 475.731445312 223.221679688 c 1
 502.291992188 264.384765625 508.291992188 303.921875 511.713867188 360.873046875 c 0
 515.275390625 420.166992188 470.419921875 469.375976562 470.419921875 515.333984375 c 0
 470.419921875 572.209960938 551.578125 614.783203125 596.924804688 615.688476562 c 0
 653.446289062 615.688476562 668.029296875 559.880859375 668.029296875 502.923828125 c 0
 668.029296875 356.762695312 590.813476562 271.19921875 528.634765625 164.475585938 c 0
 510.341796875 133.079101562 626.55859375 116.227539062 626.55859375 101.662109375 c 0
 626.55859375 60.2529296875 587.118164062 -8 535.243164062 -8 c 0
 480.814453125 -8 459.418945312 60 422.072265625 60 c 0
EndSplineSet
EndChar

StartChar: R
Encoding: 82 82 37
Width: 688
Flags: HW
HStem: 618 88<357.028 473.484>
LayerCount: 2
Fore
SplineSet
466.293945312 270.123046875 m 0
 466.293945312 194.814453125 618.073242188 196.935546875 618.073242188 131.552734375 c 0
 618.073242188 65.1669921875 548.501953125 -15 482.047851562 -15 c 0
 360.788085938 -15 306.971679688 209.36328125 306.971679688 271.197265625 c 0
 307.525390625 312.900390625 381.46484375 319.116210938 412.12109375 349.987304688 c 0
 458.490234375 396.680664062 493.137695312 452.8828125 493.137695312 526.041992188 c 0
 493.137695312 570.659179688 475.50390625 618 431.346679688 618 c 0
 405.259765625 618 384.540039062 520.525390625 377.125976562 501.9375 c 0
 348.953125 433.189453125 323.040039062 362.853515625 291.44921875 296.243164062 c 0
 267.537109375 245.822265625 240.141601562 120.086914062 174.502929688 57.6455078125 c 0
 156.184570312 39.7958984375 91.384765625 10 63.6044921875 10 c 0
 42.0810546875 10 28 22.779296875 28 45.986328125 c 0
 28 100.5546875 59.361328125 149.27734375 81.212890625 202.060546875 c 0
 119.174804688 293.969726562 162.708007812 384.776367188 204.6875 475.89453125 c 0
 216.978515625 503.045898438 251.616210938 552.16796875 255.799804688 584.338867188 c 1
 255.799804688 584.338867188 260.86328125 599 249.9921875 599 c 0
 234.126953125 599 219.318359375 593 208.06640625 593 c 0
 194.522460938 593 187.962890625 598.662109375 187.962890625 610.681640625 c 0
 194.094726562 700.87109375 323.266601562 702.413085938 389.420898438 706 c 0
 535.263671875 713.907226562 658.388671875 639.116210938 658.388671875 513.958984375 c 0
 658.388671875 387.698242188 566.118164062 322.764648438 471.573242188 283.467773438 c 0
 466.659179688 281.424804688 466.293945312 275.069335938 466.293945312 270.123046875 c 0
EndSplineSet
EndChar

StartChar: S
Encoding: 83 83 38
Width: 559
Flags: HW
HStem: -10 85<202.658 267.603> 634 78<349.291 407.824>
LayerCount: 2
Fore
SplineSet
322.23828125 525.2421875 m 0
 323.323242188 412.88671875 444.76171875 373.859375 444.76171875 251.010742188 c 0
 444.76171875 114.86328125 329.159179688 -10 216.915039062 -10 c 0
 132.719726562 -9.529296875 28 51.1826171875 28 141.319335938 c 0
 28 193.21484375 103.919921875 237 144.553710938 237 c 0
 210.759765625 237 154.473632812 75 235.21484375 75 c 0
 275.291015625 75 284.021484375 122.44140625 284.021484375 161.194335938 c 0
 284.021484375 287.44921875 139.62109375 333.247070312 139.62109375 466.006835938 c 0
 139.62109375 618.426757812 291.4921875 712 402.797851562 712 c 0
 474.376953125 712 529.19140625 683.108398438 529.19140625 613.240234375 c 0
 529.19140625 540.875 488.737304688 499.517578125 439.45703125 458.92578125 c 0
 429.09765625 450.638671875 415.8046875 440 405.6875 440 c 0
 397.827148438 440 396.08984375 440.75 396.08984375 446.935546875 c 0
 396.08984375 479.874023438 410.3046875 508.349609375 410.334960938 546.979492188 c 0
 410.334960938 583.451171875 403.75390625 634 372.94140625 634 c 0
 343.033203125 634 321.497070312 564.877929688 322.23828125 525.2421875 c 0
EndSplineSet
EndChar

StartChar: T
Encoding: 84 84 39
Width: 524
Flags: HW
HStem: 541.791 141.562<379.384 450.733>
VStem: 235.132 143.893<476.425 530.967>
LayerCount: 2
Fore
SplineSet
70.365234375 562.0390625 m 0
 70.365234375 626.401367188 150.629882812 691 229.385742188 691 c 0
 278.73046875 691 327.525390625 684.021484375 376.659179688 681.010742188 c 0
 422.745117188 677.5546875 493.616210938 686.852539062 493.616210938 638.598632812 c 0
 493.616210938 557.887695312 437.938476562 559.14453125 379.383789062 541.791015625 c 1
 383.493164062 490.576171875 360.681640625 462.974609375 343.702148438 419.91796875 c 0
 314.735351562 346.462890625 288.224609375 272.134765625 264.147460938 196.708984375 c 0
 230.01171875 89.771484375 196.80078125 -12 75.9931640625 -12 c 0
 52.6650390625 -12 28 6.6787109375 28 30.5498046875 c 0
 28 67.6220703125 37.67578125 90.6298828125 48.681640625 119.26171875 c 0
 98.3486328125 260.294921875 235.131835938 377.61328125 235.131835938 525 c 0
 235.131835938 527.5859375 232.96875 533 227.470703125 533 c 0
 196.552734375 533 164.12109375 525 131.993164062 525 c 0
 98.7216796875 525 70.365234375 530.46875 70.365234375 562.0390625 c 0
EndSplineSet
EndChar

StartChar: U
Encoding: 85 85 40
Width: 651
Flags: HW
HStem: 9 189<167.347 246.019> 675 20G<306.068 355.853>
VStem: 384.221 176.696<41.8884 220.914>
LayerCount: 2
Fore
SplineSet
460.071289062 6 m 0
 407.3984375 6 380.658203125 76.6865234375 380.658203125 137.787109375 c 0
 380.658203125 162.705078125 382.973632812 188.487304688 384.21484375 212.737304688 c 1
 384.21484375 212.868164062 l 1
 384.221679688 213 l 2
 384.221679688 220.201171875 376.354492188 221 374.497070312 221 c 0
 369.303710938 221 367.990234375 216.897460938 366.3359375 214.1484375 c 0
 302.381835938 126.708007812 225.530273438 9 118.916015625 9 c 0
 57.0908203125 9 28 58.0634765625 28 116.903320312 c 0
 28 276.327148438 135.768554688 458.619140625 203.763671875 595.676757812 c 0
 246.325195312 680.228515625 258.060546875 695 354.076171875 695 c 0
 377.923828125 695 391.87109375 685.5078125 391.87109375 662.790039062 c 0
 391.87109375 608.134765625 352 565.01171875 331.174804688 515.07421875 c 0
 289.381835938 410.13671875 220.040039062 335.9765625 220.040039062 211.935546875 c 0
 220.040039062 203.451171875 222.440429688 198 228.631835938 198 c 0
 292.176757812 198 425.110351562 441.567382812 460.350585938 493.427734375 c 0
 497.5390625 547.771484375 524.436523438 600 584.916015625 600 c 0
 607.517578125 600 620.828125 592.931640625 620.828125 571.188476562 c 0
 620.828125 445.029296875 560.469726562 329.856445312 560.469726562 185.918945312 c 0
 560.469726562 150.311523438 561.28515625 115.780273438 565.673828125 83 c 0
 573.841796875 21.978515625 499.407226562 6 460.071289062 6 c 0
EndSplineSet
EndChar

StartChar: V
Encoding: 86 86 41
Width: 585
Flags: HW
HStem: -9 21G<50.9431 106.417> 672 20G<215.021 235.764>
LayerCount: 2
Fore
SplineSet
259.80078125 667.112304688 m 0
 259.80078125 512.173828125 191.022460938 379.8203125 191.022460938 216.325195312 c 0
 191.022460938 187.525390625 196.231445312 163 214.426757812 163 c 1
 253.778320312 215.9453125 289.611328125 273.471679688 316.370117188 333.86328125 c 0
 375.599609375 467.536132812 387.454101562 681 543.686523438 681 c 0
 552.545898438 681 555.079101562 672.388671875 555.079101562 661.453125 c 0
 555.079101562 490.471679688 329.911132812 135.548828125 209.37890625 24.8212890625 c 0
 180.786132812 -1.4453125 123.147460938 -9 89.6865234375 -9 c 0
 40.810546875 -9 30 117.03515625 30 227.049804688 c 0
 30 354.744140625 32.9619140625 371.015625 44.640625 476.325195312 c 0
 56.1259765625 579.899414062 63.962890625 631.423828125 156.444335938 672.411132812 c 0
 181.458007812 683.364257812 203.0546875 692 226.986328125 692 c 0
 244.541015625 692 259.80078125 684.666992188 259.80078125 667.112304688 c 0
EndSplineSet
EndChar

StartChar: W
Encoding: 87 87 42
Width: 876
Flags: HW
HStem: -11 125<415.288 631.728> -1 207.035<51.551 201.459>
VStem: 355.192 147.729<132.245 285.941> 722.54 123.301<491.454 630.561>
LayerCount: 2
Fore
SplineSet
355.19140625 274.724609375 m 2
 355.19140625 272.934570312 355.19140625 271.145507812 355.19140625 269.35546875 c 0
 353.516601562 238.177734375 349.389648438 196.858398438 349.389648438 155.485351562 c 0
 349.389648438 72.6923828125 375.2109375 -11 455.365234375 -11 c 0
 617.806640625 -11 779.533203125 305.494140625 816.119140625 453.91796875 c 4
 821.380859375 474.44140625 845.840820312 589.446289062 845.840820312 656.547851562 c 4
 845.840820312 685.272460938 841.358398438 705.219726562 828.969726562 705.219726562 c 4
 788.307617188 705.219726562 719.926757812 618.23828125 713.1484375 562.421875 c 4
 700.837890625 461.040039062 645.649414062 114 543.75390625 114 c 0xb0
 525.216796875 114 502.920898438 175.158203125 502.920898438 197.740234375 c 0
 502.920898438 394.920898438 613.044921875 519.784179688 613.044921875 673.357421875 c 0
 613.044921875 690.856445312 603.56640625 696.900390625 582.678710938 696.900390625 c 0
 524.629882812 696.900390625 477.706054688 684.458007812 432.510742188 617.924804688 c 0
 396.31640625 564.938476562 209.772460938 206.03515625 193.146484375 206.03515625 c 0
 181.7890625 206.03515625 180.3984375 216.674804688 181.411132812 223.994140625 c 0
 191.254882812 298.1953125 208.7421875 373.192382812 222.7109375 448.436523438 c 0
 237.752929688 529.459960938 284.0703125 605.38671875 284.0703125 685.477539062 c 0
 284.0703125 696.168945312 279.103515625 704 263.857421875 704 c 0
 101.364257812 704 73.197265625 620.423828125 51.923828125 422.548828125 c 0
 40.515625 316.431640625 28 211.994140625 28 102.751953125 c 0
 28 55.51953125 34.1318359375 -1 68.9697265625 -1 c 0x70
 193.826171875 -1 286.90625 238.609375 349.739257812 288.934570312 c 1
 349.739257812 289.44921875 l 2
 350.392578125 286.065429688 355.19140625 274.724609375 355.19140625 274.724609375 c 2
EndSplineSet
EndChar

StartChar: X
Encoding: 88 88 43
Width: 713
Flags: HW
HStem: -9 21G<35.7837 64.3677> 691 20G<266.558 338.496>
LayerCount: 2
Fore
SplineSet
451.115234375 351.146484375 m 0
 451.115234375 266.861328125 567.890625 225.796875 567.890625 155.036132812 c 0
 567.890625 129.2421875 474.201171875 92.408203125 448.608398438 92.408203125 c 0
 385.93359375 92.408203125 343.9375 142.973632812 326.32421875 207 c 1
 312.919921875 207 l 1
 274.819335938 170.46484375 226.763671875 124.719726562 204.157226562 103.284179688 c 0
 171.600585938 73.572265625 82.890625 -9 45.845703125 -9 c 0
 31.9228515625 -9 28 5.6337890625 28 22.4296875 c 0
 28.1474609375 119.971679688 114.180664062 144.629882812 170.1640625 191.680664062 c 0
 212.494140625 227.256835938 313.337890625 276.227539062 289.120117188 332.583007812 c 0
 241.600585938 443.162109375 178.97265625 570.739257812 178.97265625 680.928710938 c 4
 178.97265625 699.661132812 256.954101562 711 276.74609375 711 c 0
 400.245117188 711 397.828125 456.46484375 430.055664062 456.46484375 c 0
 444.877929688 456.46484375 562.09375 624.608398438 582.037109375 641.180664062 c 0
 606.197265625 661.76171875 639.180664062 674.493164062 668.845703125 674.493164062 c 0
 680.060546875 674.493164062 683.380859375 674.225585938 683.380859375 667.165039062 c 0
 680.450195312 621.4609375 629.8203125 572.834960938 602.083007812 539.916015625 c 0
 547.108398438 474.671875 501.5859375 426.372070312 456.475585938 366.287109375 c 0
 453.938476562 363.65234375 451.115234375 359.41796875 451.115234375 351.146484375 c 0
EndSplineSet
EndChar

StartChar: Y
Encoding: 89 89 44
Width: 789
Flags: HW
HStem: 692 20G<336.957 369.743>
VStem: 186.738 178.391<238.398 645.792>
LayerCount: 2
Fore
SplineSet
271.236328125 37.73828125 m 0
 271.236328125 168.048828125 180.137695312 313.780273438 179.94140625 467.712890625 c 0
 179.94140625 608.388671875 210.447265625 712 350.4453125 712 c 0
 366.192382812 712 370.49609375 696.958007812 370.49609375 676.399414062 c 0
 370.49609375 564.635742188 357.1328125 462.87890625 357.1328125 312.959960938 c 0
 357.1328125 243.358398438 357.87890625 176.822265625 377.885742188 176.822265625 c 0
 471.471679688 176.822265625 530.084960938 507.131835938 610.657226562 598.130859375 c 0
 640.625976562 631.978515625 704.813476562 685.696289062 746.572265625 685.696289062 c 0
 756.094726562 685.696289062 758.540039062 683.426757812 758.540039062 677.47265625 c 0
 758.540039062 675.178710938 759.2109375 672.029296875 757.715820312 668.868164062 c 0
 665.248046875 473.41796875 549.1640625 290.489257812 430.765625 116.064453125 c 0
 349.458007812 -3.716796875 245.1015625 -171 73.572265625 -171 c 0
 48.2451171875 -171 28 -162.98046875 28 -140.313476562 c 0
 28 -112.346679688 44.4375 -93.50390625 59.6796875 -70.8515625 c 0
 84.9072265625 -34.5234375 93.85546875 -16 141.572265625 -16 c 0
 169.748046875 -16 271.236328125 1.2333984375 271.236328125 37.73828125 c 0
EndSplineSet
EndChar

StartChar: Z
Encoding: 90 90 45
Width: 698
Flags: HW
HStem: -10 183<309.521 399.185> 527 158.059<244.835 347.655> 562 129<315.873 440.024>
LayerCount: 2
Fore
SplineSet
230.49609375 -10 m 0
 151.98828125 -10 28 11.9150390625 28 73.3720703125 c 0
 28 139.881835938 336.234375 419.716796875 405.861328125 504.69140625 c 0
 421.923828125 523.3515625 436.127929688 534.064453125 440.0234375 562 c 1
 371.104492188 562 297.1875 527 231.471679688 527 c 0
 199.120117188 527 182.794921875 534.069335938 182.794921875 560.862304688 c 0
 182.794921875 608.610351562 234.483398438 678.065429688 275.505859375 685.05859375 c 4xc0
 369.579101562 701.095703125 424.678710938 691 516.473632812 691 c 1
 516.473632812 691 l 1
 535.435546875 691 565.33984375 693.33984375 591.22265625 693.33984375 c 0
 631.037109375 693.33984375 667.969726562 687.802734375 667.969726562 659.6953125 c 0
 667.505859375 635.043945312 633.137695312 609.181640625 617.15234375 590.728515625 c 0
 505.546875 461.885742188 399.80078125 331.509765625 309.520507812 189.180664062 c 0
 306.646484375 184.6484375 309.520507812 178.393554688 309.520507812 173 c 1
 385.875976562 173 467.841796875 203 540.741210938 203 c 0
 556.887695312 203 564.788085938 197.590820312 564.788085938 186.696289062 c 0
 564.788085938 161.434570312 539.104492188 122.962890625 525.912109375 101.71484375 c 0
 460.342773438 -0.560546875 325.227539062 -10 230.49609375 -10 c 0
EndSplineSet
EndChar

StartChar: bracketleft
Encoding: 91 91 46
Width: 565
Flags: HW
HStem: -3 147<198.73 295.884> 695 137<362.878 512.03>
LayerCount: 2
Fore
SplineSet
31 59.626953125 m 0
 31 194.196289062 99.431640625 309.116210938 126.737304688 441.905273438 c 0
 136.965820312 491.6484375 152.727539062 579.173828125 171.93359375 665.911132812 c 0
 179.958007812 704.443359375 217.391601562 832 266.44140625 832 c 2
 454.854492188 832 l 2
 499.717773438 832 532.663085938 802.438476562 532.663085938 760.032226562 c 0
 532.663085938 742.041015625 513.524414062 695 499.854492188 695 c 6
 362.877929688 695 l 1
 341.940429688 687.8671875 324.276367188 580.25 308.981445312 521.275390625 c 0
 284.188476562 425.67578125 209.708007812 221.293945312 190.349609375 156 c 1
 190.349609375 154.150390625 l 1
 198.729492188 144 l 1
 241.3984375 144 l 2
 288.153320312 144 334.53515625 137.780273438 334.53515625 96.3818359375 c 0
 334.53515625 -1.1787109375 244.438476562 -3 164.125 -3 c 0
 162.915039062 -3 161.703125 -3 160.490234375 -3 c 0
 97.275390625 -3 31 5.962890625 31 59.626953125 c 0
EndSplineSet
EndChar

StartChar: quoteleft
Encoding: 8216 8216 47
Width: 227
Flags: HW
HStem: 578 254<111.449 148.73>
VStem: 35.9723 159.093
LayerCount: 2
Fore
SplineSet
35 661.889648438 m 0
 35 726.966796875 99.6875 832 157.022460938 832 c 0
 199.491210938 832 157.454101562 778.208007812 157.454101562 745.510742188 c 0
 157.454101562 705.008789062 195.474609375 692.737304688 195.474609375 660.544921875 c 0
 194.956054688 620.387695312 127.174804688 578 93.0224609375 578 c 0
 55.8369140625 578 35 622.359375 35 661.889648438 c 0
EndSplineSet
EndChar

StartChar: a
Encoding: 97 97 48
Width: 557
Flags: W
HStem: -10 147<86.8428 256.726> 447 68<319.187 428.83>
VStem: 28 175.315<74.7329 205.013> 339.969 161.128<49.8167 149> 365.724 155.438<279.517 445.729>
LayerCount: 2
Fore
SplineSet
203.315429688 186.573242188 m 0xe8
 203.315429688 162.102539062 209 137 232.880859375 137 c 0
 280.5703125 137 350.338867188 232.461914062 382.743164062 266.35546875 c 1
 391.090820312 284.27734375 l 1
 371.872070312 276.026367188 350.947265625 268.233398438 331.067382812 268.233398438 c 0
 319.18359375 268.233398438 317.375976562 265.823242188 318.5078125 273.719726562 c 0
 323.481445312 316.435546875 365.723632812 353.740234375 365.723632812 411.33984375 c 0
 365.723632812 428.694335938 362.198242188 447 348.39453125 447 c 0
 281.525390625 447 203.315429688 253.471679688 203.315429688 186.573242188 c 0xe8
525.54296875 324.129882812 m 0
 525.54296875 259.016601562 496.138671875 187.514648438 496.328125 112.967773438 c 0
 496.328125 93.9912109375 497.725585938 75.001953125 501.096679688 56.18359375 c 0
 500.578125 53.6240234375 499.151367188 50.294921875 498.791992188 49.791015625 c 0
 464.78515625 22.4580078125 428.602539062 -7 391.712890625 -7 c 0
 349.274414062 -7 339.96875 29.2021484375 339.96875 71.77734375 c 0xf0
 339.96875 97.375 343.33203125 125.276367188 344.881835938 149 c 1
 336.438476562 149 327.151367188 140.002929688 325.6953125 138.490234375 c 4
 270.444335938 78.0732421875 189.256835938 -10 116.17578125 -10 c 0
 57.509765625 -10 28 43.697265625 28 105.768554688 c 0
 28 285.857421875 263.9296875 515 398.451171875 515 c 0
 459.208984375 515 521.161132812 489.345703125 521.161132812 428.203125 c 0
 521.161132812 395.200195312 494.245117188 378.782226562 491.03515625 350.981445312 c 1
 491.03515625 344.76171875 l 1
 520.17578125 344.76171875 l 2
 523.061523438 344.76171875 525.54296875 333.317382812 525.54296875 324.129882812 c 0
EndSplineSet
EndChar

StartChar: b
Encoding: 98 98 49
Width: 531
Flags: HW
HStem: -10 95<101.647 240.488> 495 20G<389.98 446.498> 512 21G<316.56 351.767> 729 58<373.077 404.779>
LayerCount: 2
Fore
SplineSet
468.892578125 433.298828125 m 0
 468.892578125 230.325195312 327.176757812 -10 155.5078125 -10 c 0xd0
 64.8154296875 -10 28 54.98046875 28 145.009765625 c 0
 28 361.547851562 164.43359375 575.05859375 308.432617188 730.412109375 c 0
 339.490234375 763.918945312 380.844726562 787 419.828125 787 c 0
 471.04296875 787 501.26953125 749.087890625 501.26953125 696.674804688 c 0
 500.747070312 597.796875 389.336914062 515.103515625 318.517578125 512 c 0xb0
 313.639648438 512 311.747070312 514.0078125 311.747070312 517.146484375 c 0
 311.747070312 585.326171875 396.3046875 632.018554688 404.778320312 707.29296875 c 0
 405.70703125 713.798828125 405.54296875 729 391.828125 729 c 1
 292.9375 620.637695312 183.928710938 341.38671875 183.928710938 167.307617188 c 0
 183.928710938 133.4453125 189.806640625 85 220.711914062 85 c 0
 276.209960938 85 298.028320312 181.275390625 303.909179688 225.26171875 c 1
 279.06640625 225.26171875 261.543945312 230.787109375 261.543945312 256.563476562 c 0
 261.543945312 352.408203125 357.112304688 515 419.828125 515 c 0
 458.087890625 515 468.892578125 476.46875 468.892578125 433.298828125 c 0
EndSplineSet
EndChar

StartChar: c
Encoding: 99 99 50
Width: 418
Flags: HW
HStem: -10 119<125.376 232.371> 435 79<260.35 322.868>
LayerCount: 2
Fore
SplineSet
211.517578125 109 m 0
 255.048828125 108.178710938 291.626953125 190 331.809570312 190 c 0
 335.623046875 190 336.8828125 187.94140625 335.846679688 178.61328125 c 0
 322.287109375 78.8505859375 200.854492188 -10 127.809570312 -10 c 0
 64.095703125 -10 28 43.8125 28 109.547851562 c 0
 28 253.712890625 124.391601562 356.821289062 210.061523438 449.115234375 c 0
 240.42578125 480.619140625 281.353515625 514 320.809570312 514 c 0
 360.767578125 514 388.006835938 488.71484375 388.006835938 447.750976562 c 0
 386.997070312 381.362304688 318.17578125 305.124023438 266.900390625 302 c 0
 259.360351562 302 256.561523438 304.961914062 256.561523438 309.456054688 c 0
 256.561523438 349.276367188 293.724609375 364.645507812 296.5234375 417.439453125 c 0
 296.5234375 427.749023438 293.684570312 435 285.809570312 435 c 0
 273.865234375 435 265.52734375 420.918945312 260.446289062 413.346679688 c 0
 215.46484375 342.840820312 182.36328125 254.918945312 182.36328125 161.408203125 c 0
 182.36328125 135.405273438 188.225585938 109 211.517578125 109 c 0
EndSplineSet
EndChar

StartChar: d
Encoding: 100 100 51
Width: 654
Flags: HW
HStem: -10 21G<67.627 129.334> 444 71<281.354 349.769>
VStem: 331.228 161.856<36.7122 144.991 271.63 425.211>
LayerCount: 2
Fore
SplineSet
230.744140625 322.8046875 m 0
 215.88671875 283.346679688 203.310546875 248.051757812 203.310546875 201.420898438 c 0
 203.310546875 181.389648438 207.553710938 155 231.387695312 155 c 0
 273.008789062 155 339.038085938 220.20703125 344.135742188 249.048828125 c 0
 345.435546875 254.212890625 350.305664062 269 339.353515625 269 c 0
 322.995117188 269 313.5703125 249 305.310546875 249 c 0
 301.515625 249 301.93359375 249.391601562 302.26953125 252.731445312 c 0
 319.7578125 297.407226562 328.747070312 320.670898438 328.993164062 380.1171875 c 0
 328.993164062 411.658203125 324.268554688 444 305.310546875 444 c 0
 277.708984375 444 237.913085938 342.155273438 230.744140625 322.8046875 c 0
28 90.568359375 m 0
 28 274.943359375 219.948242188 510.498046875 340.326171875 515 c 0
 359.2109375 515 369.194335938 504.395507812 384.227539062 491 c 1
 393.559570312 491 436.51171875 617.924804688 459.551757812 670.984375 c 0
 495.299804688 754.424804688 513.51171875 772 589.73046875 772 c 0
 600.0546875 772 623.869140625 770.609375 623.869140625 761.676757812 c 0
 623.869140625 569.823242188 492.478515625 409.181640625 486.772460938 183.784179688 c 0
 485.7421875 143.063476562 488.99609375 105.68359375 493.998046875 70.1787109375 c 0
 498.403320312 38.9111328125 420.846679688 -6 367.560546875 -6 c 0
 335.232421875 -6 329.51171875 32.060546875 329.51171875 70.1123046875 c 0
 329.51171875 100.737304688 340.91015625 131.619140625 322.818359375 145 c 1
 264.415039062 93.060546875 168.345703125 -10.38671875 94.73046875 -10 c 0
 48.3046875 -10 28 40.15625 28 90.568359375 c 0
EndSplineSet
EndChar

StartChar: e
Encoding: 101 101 52
Width: 471
Flags: W
HStem: -10 109<100.166 255.524> 135.889 24.8877<190.98 221.729> 441 74<287.584 392.447>
VStem: 28 161.154<101.658 176.869> 320.865 119.726<320.185 440.806>
LayerCount: 2
Back
SplineSet
222.669500127 270.797851562 m 5
 212.139939127 243.455078125 205.427309374 212.002929688 201.614070443 183.764648438 c 4
 200.970684451 179.677734375 198.295601802 163 211.956246426 163 c 4
 217.165180653 163 219.084261683 166.469726562 222.860577459 170.46484375 c 4
 282.399166436 233.453125 319.558630589 326.478515625 331.96875 421.29296875 c 4
 332.794921875 427.07421875 333.913085938 441 321.60325035 441 c 4
 290.801030574 441 229.686745916 291.21484375 222.669500127 270.797851562 c 5
127.41796875 -8.90234375 m 4
 66.9072265625 -0.5244140625 30.2080078125 54.27734375 40.9697265625 131.98828125 c 4
 62.76171875 288.509765625 217.631335496 515 380.018554688 515 c 4
 383.603515625 515 387.049804688 514.755859375 390.359375 514.287109375 c 4
 434.938476562 507.807617188 458.286132812 457.8671875 450.065429688 398.901367188 c 4
 436.250976562 295.772460938 319.271553052 129.740234375 233.696600652 129.740234375 c 4
 227.399356404 129.740234375 220.782726857 135.888671875 210.065780841 135.888671875 c 4
 203.974383188 135.888671875 202.711611254 128.673828125 202.606380259 128.005859375 c 5
 198.712833464 101.27734375 227.225817571 99 236.53229903 99 c 4
 296.72258171 99 342.577148438 173 385.018554688 173 c 4
 397.479492188 173 408.51953125 163.418945312 406.080078125 148.782226562 c 5
 403.560546875 131.985351562 378.520507812 114.435546875 364.814453125 102.838867188 c 5
 298.879817097 46.9736328125 220.198417914 -10 144.018554688 -10 c 4
 138.291992188 -10 132.75390625 -9.626953125 127.41796875 -8.90234375 c 4
EndSplineSet
Fore
SplineSet
211.56640625 270.797851562 m 0
 199.97265625 235.83984375 186.5859375 201.059570312 190.961914062 162.166015625 c 0
 191.280273438 159.33984375 196.59765625 160.776367188 199.420898438 160.776367188 c 0
 259.734375 160.776367188 320.865234375 366.5625 320.865234375 421.29296875 c 0
 320.865234375 427.1328125 322.809570312 441 310.5 441 c 0
 279.697265625 441 218.583007812 291.21484375 211.56640625 270.797851562 c 0
28 105.739257812 m 0
 28 282.283203125 200.16796875 515 368.915039062 515 c 0
 415.978515625 515 440.590820312 473.208984375 440.590820312 421.88671875 c 0
 440.590820312 271.28515625 300.668945312 135.888671875 189.961914062 135.888671875 c 5
 189.961914062 135.888671875 189.154296875 132.697265625 189.154296875 128.193359375 c 0
 189.154296875 117.380859375 193.8046875 99 225.428710938 99 c 0
 285.619140625 99 331.473632812 173 373.915039062 173 c 0
 385.198242188 173 395.317382812 165.143554688 395.317382812 152.791992188 c 0
 395.317382812 132.446289062 368.1640625 115.067382812 353.7109375 102.838867188 c 0
 287.776367188 46.9736328125 209.094726562 -10 132.915039062 -10 c 0
 67.416015625 -10 28 37.353515625 28 105.739257812 c 0
EndSplineSet
EndChar

StartChar: f
Encoding: 102 102 53
Width: 399
Flags: HW
HStem: 519 111<296.956 353.298>
LayerCount: 2
Fore
SplineSet
302.844726562 519 m 0
 266.768554688 478.276367188 237.078125 292.978515625 221.584960938 227.966796875 c 1
 221.584960938 227.592773438 l 2
 221.584960938 225.55859375 221.893554688 217.438476562 228.868164062 217.438476562 c 0
 242.901367188 217.438476562 260.233398438 219.469726562 275.844726562 219.469726562 c 0
 294.439453125 219.469726562 311.24609375 215.375 311.24609375 198.288085938 c 0
 311.24609375 131.946289062 248.056640625 97.55859375 193.984375 97.55859375 c 0
 183.443359375 97.55859375 183.569335938 54.1044921875 178.853515625 38.576171875 c 0
 163.374023438 -12.40234375 163.05078125 -153 76.8447265625 -153 c 0
 39.0791015625 -153 28 -141.994140625 28 -111.793945312 c 0
 28 -36.4951171875 49.958984375 32.2080078125 66.73046875 98.2021484375 c 0
 100.321289062 230.377929688 216.65234375 630 344.844726562 630 c 0
 363.709960938 630 369.497070312 613.170898438 369.497070312 592.424804688 c 0
 369.497070312 569.341796875 362.333007812 541.408203125 358.047851562 526.411132812 c 0
 352.434570312 507.327148438 315.244140625 402 295.844726562 402 c 0
 294.810546875 402 293.006835938 401.698242188 293.006835938 405.797851562 c 0
 293.006835938 439.5859375 309.374023438 469.435546875 312.374023438 504.57421875 c 0
 312.374023438 511.932617188 307.646484375 524.419921875 302.844726562 519 c 0
EndSplineSet
EndChar

StartChar: g
Encoding: 103 103 54
Width: 574
Flags: HW
HStem: 2.18262 147.817<95.0194 238.482> 455 62<357.021 449.22>
LayerCount: 2
Fore
SplineSet
352.981445312 429.579101562 m 0
 287.803710938 363.134765625 223.4375 276.893554688 215.15625 171.453125 c 0
 215.15625 160.288085938 218.315429688 150 230.897460938 150 c 0
 246.06640625 150 377.036132812 257.631835938 378.517578125 271.448242188 c 1
 378.517578125 277 l 1
 337.649414062 277 l 1
 336.509765625 278.467773438 336.008789062 280.133789062 336.008789062 281.94140625 c 0
 363.99609375 326.248046875 400.393554688 376.530273438 405.51953125 436.29296875 c 0
 406.451171875 443.05078125 406.2265625 455 393.022460938 455 c 0
 378.3203125 455 361.553710938 438.461914062 352.981445312 429.579101562 c 0
203.876953125 -98 m 0
 203.876953125 -96.3330078125 203.876953125 -94.6669921875 203.876953125 -93 c 1
 202.500976562 -93 192.295898438 -95.130859375 192.295898438 -99 c 2
 192.295898438 -104 l 1
 192.295898438 -104 203.876953125 -104.59765625 203.876953125 -98 c 0
282.247070312 50.68359375 m 1
 250.364257812 -9.2890625 226.201171875 -70.0634765625 218.873046875 -140.754882812 c 0
 218.873046875 -148.684570312 221.099609375 -156 229.932617188 -156 c 0
 238.61328125 -156 245.510742188 -145.227539062 247.604492188 -141.530273438 c 0
 290.352539062 -64.861328125 336.8515625 51.115234375 348.583007812 137.530273438 c 0
 348.774414062 138.336914062 352.65625 154.495117188 341.875976562 154.495117188 c 1
 281.604492188 104.342773438 166.369140625 2.1826171875 96.900390625 2.1826171875 c 0
 50.501953125 2.1826171875 28 39.9794921875 28 88.3466796875 c 0
 28 305.974609375 278.9296875 517 444.900390625 517 c 0
 498.22265625 517 544.01171875 499.203125 544.01171875 446.172851562 c 0
 544.4375 399.2265625 505.71484375 348.805664062 505.71484375 334.619140625 c 0
 505.71484375 318.83203125 533.36328125 320.774414062 533.36328125 292.770507812 c 0
 533.36328125 75.080078125 407.561523438 -122.619140625 242.250976562 -205.528320312 c 0
 215.439453125 -219.418945312 187.12109375 -231 160.450195312 -231 c 0
 118.74609375 -231 88.802734375 -196.733398438 88.802734375 -153.751953125 c 0
 88.802734375 -48.3095703125 228.107421875 50.013671875 282.043945312 52 c 0
 282.108398438 51.677734375 282.247070312 50.68359375 282.247070312 50.68359375 c 1
EndSplineSet
EndChar

StartChar: h
Encoding: 104 104 55
Width: 549
Flags: HW
HStem: 695 57<387.732 458.723>
VStem: 285.165 173.63<44.2705 146.067>
LayerCount: 2
Fore
SplineSet
449.006835938 173.0859375 m 0
 449.006835938 139.61328125 458.794921875 100.915039062 458.794921875 72.166015625 c 0
 458.794921875 41.123046875 370.96484375 9 343.684570312 9 c 0
 309.696289062 9 279.573242188 53.3203125 285.165039062 94.5087890625 c 2
 298.536132812 192.993164062 l 2
 298.536132812 200.088867188 290.795898438 199 290.795898438 199 c 1
 224.301757812 145.638671875 150.66796875 12 61.4970703125 12 c 0
 35.3134765625 12 28 45.0400390625 28 78.080078125 c 0
 28 266.564453125 254.782226562 752 430.497070312 752 c 0
 486.94921875 752 518.506835938 708.583984375 518.506835938 649.8125 c 0
 518.506835938 534.7890625 444.124023438 484.107421875 369.477539062 419.387695312 c 0
 353.3515625 405.40625 335.720703125 400 323.490234375 400 c 0
 315.9296875 400 310.248046875 404.346679688 312.888671875 410.502929688 c 0
 347.9765625 492.302734375 403.474609375 578.651367188 417.4375 676.23046875 c 0
 417.846679688 678.686523438 422.3515625 695 410.497070312 695 c 0
 396.624023438 695 389.177734375 676.802734375 386.706054688 672.616210938 c 0
 319.184570312 558.26171875 249.6640625 404.932617188 234.1171875 291.764648438 c 0
 234.040039062 291.288085938 227.67578125 272 237.907226562 272 c 0
 290.51953125 272 364.708984375 435 460.497070312 435 c 0
 480.778320312 435 493.19921875 419.470703125 493.19921875 395.545898438 c 0
 493.19921875 322.215820312 449.006835938 259.754882812 449.006835938 173.0859375 c 0
EndSplineSet
EndChar

StartChar: i
Encoding: 105 105 56
Width: 367
Flags: W
HStem: 475 20G<169.113 223.922>
VStem: 203.583 133.642<599.069 653.315>
LayerCount: 2
Fore
SplineSet
337.224609375 683.490234375 m 0
 337.224609375 621.352539062 292.373046875 532 234.22265625 532 c 4
 211.911132812 532 203.583007812 546.141601562 203.583007812 568.392578125 c 0
 205.899414062 630.700195312 246.3671875 721 301.22265625 721 c 4
 324.268554688 721 337.224609375 708.833984375 337.224609375 683.490234375 c 0
252.176757812 429.815429688 m 0
 252.176757812 327.041015625 159.805664062 4 79.22265625 4 c 0
 38.9580078125 4 28 50.0693359375 28 95.4248046875 c 0
 28 111.125 29.3134765625 126.739257812 31.177734375 140.327148438 c 0
 40.353515625 208.63671875 132.002929688 495 206.22265625 495 c 0
 241.622070312 495 252.176757812 465.393554688 252.176757812 429.815429688 c 0
EndSplineSet
EndChar

StartChar: j
Encoding: 106 106 57
Width: 382
Flags: HW
VStem: 30.5944 89.6934<-104.435 -27.5489> 225.381 125.304<598.019 653.623>
LayerCount: 2
Fore
SplineSet
224.5859375 569.915039062 m 0
 224.5859375 627.999023438 265.048828125 720 316.638671875 720 c 0
 342.169921875 720 352.01953125 709.560546875 352.01953125 683.561523438 c 0
 349.81640625 621.647460938 312.602539062 532 253.638671875 532 c 0
 233.392578125 532 224.5859375 547.830078125 224.5859375 569.915039062 c 0
28 -65.5615234375 m 0
 28 -7.603515625 52.0810546875 101.53515625 80.5947265625 123.009765625 c 0
 80.6845703125 122.970703125 84.2333984375 118 90.638671875 118 c 0
 105.47265625 118 161.250976562 501 265.638671875 501 c 0
 290.607421875 501 309.615234375 478.768554688 309.615234375 447.912109375 c 0
 309.615234375 278.604492188 203.483398438 92.61328125 120.288085938 -65.021484375 c 0
 105.44140625 -92.373046875 78.705078125 -147 55.638671875 -147 c 0
 33.705078125 -147 28 -104.237304688 28 -65.5615234375 c 0
EndSplineSet
EndChar

StartChar: k
Encoding: 107 107 58
Width: 516
Flags: HW
HStem: 694 57<355.094 400.13>
LayerCount: 2
Fore
SplineSet
217.356445312 290.90234375 m 0
 220.321289062 290.90234375 224.298828125 288.721679688 226.25 290.90234375 c 0
 276.087890625 346.604492188 337.48828125 416.61328125 404.54296875 416.61328125 c 0
 440.666015625 416.61328125 457.1328125 396.192382812 457.1328125 360.006835938 c 0
 457.1328125 249.938476562 382.28515625 177.831054688 319.997070312 104.73046875 c 0
 319.6953125 103.056640625 319.551757812 101.264648438 319.551757812 99.3681640625 c 0
 319.551757812 71.029296875 351.60546875 19.564453125 366.341796875 -3.8212890625 c 0
 377.442382812 -21.826171875 412.69921875 -51.6416015625 412.69921875 -67.81640625 c 0
 412.69921875 -85.5849609375 338.661132812 -163.70703125 306.12109375 -163.70703125 c 0
 231.743164062 -163.70703125 191.881835938 -48.5361328125 191.881835938 42.8447265625 c 0
 191.881835938 152.866210938 308.512695312 118.360351562 308.512695312 228.716796875 c 0
 308.512695312 241.357421875 301.506835938 251.540039062 289.05859375 251.540039062 c 0
 249.244140625 251.540039062 200.51171875 172.709960938 182.68359375 141.94921875 c 0
 160.442382812 103.458007812 134.649414062 29.1083984375 93.54296875 29.1083984375 c 0
 45.658203125 29.1083984375 28 74.5419921875 28 124.325195312 c 0
 28 205.147460938 53.916015625 268.431640625 81.1796875 338.62109375 c 0
 126.407226562 455.056640625 275.930664062 751 397.54296875 751 c 0
 454.026367188 751 485.557617188 710.678710938 485.557617188 652.678710938 c 0
 485.557617188 550.271484375 398.3984375 428.948242188 313.916015625 424 c 0
 304.775390625 424 297.16015625 422.02734375 301.323242188 430.369140625 c 0
 339.317382812 506.497070312 373.418945312 582.755859375 385.504882812 670.381835938 c 0
 386.341796875 677.91015625 387.139648438 694 374.54296875 694 c 0
 362.303710938 694 352.9921875 671.104492188 349.919921875 665.48046875 c 0
 282.186523438 553.8515625 244.66015625 433.384765625 211.620117188 298.334960938 c 1
 211.620117188 297.999023438 l 1
 211.620117188 297.999023438 212.483398438 290.90234375 217.356445312 290.90234375 c 0
EndSplineSet
EndChar

StartChar: l
Encoding: 108 108 59
Width: 526
Flags: W
HStem: 8 128<113.636 244.102> 656 95<369.17 449.147>
VStem: 28 168.35<96.563 252.601> 393.169 102.837<562.127 653.719>
LayerCount: 2
Fore
SplineSet
391.376953125 248.938476562 m 0
 391.376953125 131.298828125 280.749023438 8 152.049804688 8 c 0
 75.22265625 8 28 57.19140625 28 135.934570312 c 0
 28 230.973632812 68.4755859375 299.594726562 105.723632812 378.81640625 c 0
 154.641601562 482.859375 315.939453125 751 422.225585938 751 c 0
 476.068359375 751 496.005859375 698.993164062 496.005859375 643.337890625 c 0
 496.005859375 494.1953125 412.37890625 369.733398438 315.680664062 281.850585938 c 0
 295.220703125 263.255859375 270.489257812 246 247.846679688 246 c 0
 241.08203125 246 234.692382812 249.467773438 239.172851562 259.266601562 c 0
 273.169921875 333.625 331.852539062 421.885742188 355.818359375 508.318359375 c 0
 367.641601562 550.959960938 387.080078125 595.604492188 393.168945312 639.243164062 c 0
 394.017578125 644.337890625 394.325195312 656 384.225585938 656 c 0
 381.74609375 656 378.504882812 653.735351562 377.204101562 651.970703125 c 0
 293.568359375 527.501953125 196.349609375 320.556640625 196.349609375 171.725585938 c 0
 196.349609375 153.157226562 201.100585938 136 220.065429688 136 c 0
 256.325195312 136 298.545898438 167.625 322.62890625 199.0546875 c 0
 329.88671875 208.526367188 367.4453125 262 381.225585938 262 c 0
 388.958984375 262 391.376953125 257.135742188 391.376953125 248.938476562 c 0
EndSplineSet
EndChar

StartChar: m
Encoding: 109 109 60
Width: 738
Flags: HW
HStem: 479 20G<220.221 259.341>
VStem: 500.53 150.29<-45.8288 184.765>
LayerCount: 2
Fore
SplineSet
518.828125 435.256835938 m 0
 517.447265625 365.49609375 463.654296875 309.850585938 456.30078125 254 c 1
 478.357421875 247.708007812 511.397460938 298.09765625 537.818359375 323.546875 c 0
 559.8125 344.733398438 621.211914062 431 664.056640625 431 c 0
 696.348632812 431 707.866210938 405.1953125 707.866210938 370.729492188 c 0
 707.866210938 255.874023438 650.819335938 166.206054688 650.819335938 39.8798828125 c 0
 650.819335938 17.783203125 655.526367188 -2.3037109375 655.862304688 -20.8662109375 c 0
 658.271484375 -62.5478515625 606.984375 -80.388671875 581.208007812 -81 c 0
 522.372070312 -81 500.529296875 -17.2158203125 500.529296875 43.61328125 c 0
 500.529296875 100.649414062 515.970703125 146.279296875 524.497070312 199.565429688 c 1
 524.497070312 200 l 2
 524.497070312 205.741210938 519.203125 208 516.674804688 208 c 0
 510.349609375 208 508.114257812 201.418945312 507.96484375 201.154296875 c 0
 434.081054688 121.314453125 350.020507812 8 299.609375 8 c 0
 268.44921875 8 254.265625 32.5576171875 254.265625 68.6376953125 c 0
 254.684570312 134.830078125 295.821289062 176.228515625 303.23828125 234 c 1
 290.4296875 234 l 1
 269.05078125 206.931640625 245.727539062 180.846679688 223.615234375 154 c 0
 188.500976562 113.512695312 113.5 11 71.056640625 11 c 0
 38.72265625 11 28 47.2734375 28 85.14453125 c 0
 28 179.458984375 85.7021484375 261.86328125 128.579101562 359.036132812 c 0
 153.908203125 414.134765625 193.6328125 499 246.809570312 499 c 0
 271.873046875 499 291.391601562 484.8359375 291.391601562 456.728515625 c 0
 291.391601562 388.0546875 240.176757812 337.424804688 224.321289062 275.338867188 c 1
 224.321289062 275 l 2
 224.321289062 272.4140625 226.529296875 267 232.143554688 267 c 0
 256.431640625 267 392.48046875 502 472.674804688 502 c 0
 502.561523438 502 518.828125 471.633789062 518.828125 435.256835938 c 0
EndSplineSet
EndChar

StartChar: n
Encoding: 110 110 61
Width: 521
Flags: W
VStem: 295.645 153.554<27.3057 225.109>
LayerCount: 2
Fore
SplineSet
28 64.306640625 m 0
 28 162.291015625 155.48046875 517 239.115234375 517 c 0
 265.405273438 517 279.315429688 500.21875 279.315429688 466.102539062 c 0
 279.315429688 409.569335938 253.743164062 360.702148438 246.771484375 311.362304688 c 1
 246.771484375 311 l 1
 246.771484375 311 243.583007812 301 252.514648438 301 c 1
 303.578125 351.26953125 375.043945312 459 441.198242188 459 c 0
 478.806640625 459 491.180664062 437.233398438 491.180664062 401.150390625 c 0
 491.180664062 300.546875 445.981445312 215.098632812 449.008789062 104.995117188 c 0
 449.008789062 99.9560546875 449.071289062 94.8984375 449.198242188 89.8125 c 0
 449.198242188 77.4873046875 452.633789062 67.849609375 452.633789062 58.2294921875 c 0
 454.059570312 29.3076171875 383.798828125 2 363.5390625 2 c 0
 311.552734375 2 295.64453125 61.2998046875 295.64453125 119.424804688 c 0
 294.84765625 156.252929688 302.841796875 183.619140625 308.026367188 215.70703125 c 1
 308.026367188 216 l 1
 308.026367188 216 310.485351562 229 300.370117188 229 c 1
 256.103515625 184.827148438 211.922851562 130.509765625 171.393554688 81 c 0
 141.934570312 45.623046875 117.021484375 -10 79.1982421875 -10 c 0
 45.21875 -10 28 24.1171875 28 64.306640625 c 0
EndSplineSet
EndChar

StartChar: o
Encoding: 111 111 62
Width: 531
Flags: W
HStem: -11 21G<153.791 225.673> 474.199 40.8008<333.59 431.873>
VStem: 28 161.49<102.477 253.3> 360.635 139.409<201.309 340.341>
LayerCount: 2
Fore
SplineSet
204.015625 -11 m 0
 103.565429688 -8.912109375 28 34.5751953125 28 139.319335938 c 0
 28 344.69140625 224.688476562 511.857421875 377.536132812 515 c 0
 394.073242188 515 432.548828125 513.053710938 432.548828125 500.379882812 c 0
 432.548828125 471.904296875 401.587890625 478.6875 379.682617188 474.19921875 c 0
 269.999023438 451.7265625 189.490234375 306.095703125 189.490234375 177.146484375 c 0
 189.490234375 130.62890625 205.95703125 86.712890625 251.458007812 76.6728515625 c 1
 321.021484375 81.68359375 360.634765625 171.23046875 360.634765625 251.947265625 c 0
 360.634765625 306.038085938 335.55859375 356.758789062 309.78125 386.1953125 c 1
 336.192382812 416.543945312 390.390625 440.616210938 424.430664062 440.616210938 c 0
 479.111328125 440.616210938 500.043945312 377.642578125 500.043945312 316.966796875 c 0
 500.043945312 185.987304688 425.955078125 93.1572265625 339.547851562 33.1376953125 c 1
 331.053710938 33.1376953125 l 1
 291.080078125 8.494140625 247.330078125 -11 204.015625 -11 c 0
EndSplineSet
EndChar

StartChar: p
Encoding: 112 112 63
Width: 602
Flags: HW
HStem: -197 21G<49.0399 94.0286> -10 85<248.053 335.576> 487 20G<243.115 310.14 444.782 475.539>
LayerCount: 2
Fore
SplineSet
477.776367188 120 m 0
 477.776367188 121.666992188 477.776367188 123.333007812 477.776367188 125 c 1
 476.776367188 125 470.776367188 115 470.776367188 114 c 2
 470.776367188 114 477.776367188 113.40234375 477.776367188 120 c 0
404.330078125 364 m 1
 339.930664062 293.271484375 241.453125 220.67578125 241.453125 117.063476562 c 0
 241.453125 91.3916015625 267.897460938 75 285.25390625 75 c 0
 380.377929688 75 407.427734375 265.243164062 412.0234375 302.270507812 c 0
 413.009765625 308.37890625 414.689453125 322.120117188 414.689453125 335.090820312 c 0
 414.689453125 350.05859375 412.452148438 364 404.330078125 364 c 1
571.528320312 379.239257812 m 0
 571.528320312 202.557617188 445.759765625 -10 298.806640625 -10 c 0
 265.099609375 -10 243.11328125 4.173828125 227.252929688 35.9833984375 c 1
 227.252929688 36.53515625 l 1
 227.252929688 36.53515625 222.44140625 58 213.614257812 58 c 1
 199.106445312 22.6640625 115.853515625 -197 72.7763671875 -197 c 0
 37.49609375 -197 28 -161.282226562 28 -123.376953125 c 0
 28 -110.275390625 29.134765625 -96.9130859375 30.73046875 -84.673828125 c 0
 46.943359375 31.79296875 188.390625 507 297.838867188 507 c 0
 322.205078125 507 329.95703125 492.317382812 329.95703125 472.18359375 c 0
 329.95703125 439.399414062 309.40234375 392.163085938 306.551757812 370.33203125 c 1
 306.551757812 351 l 1
 306.551757812 357 l 1
 356.370117188 405.127929688 399.641601562 514.572265625 472.776367188 515 c 0
 545.97265625 515 571.528320312 452.559570312 571.528320312 379.239257812 c 0
EndSplineSet
EndChar

StartChar: q
Encoding: 113 113 64
Width: 563
Flags: HW
HStem: -10 21G<110.418 135.616> 432 83<354.518 400.812>
LayerCount: 2
Fore
SplineSet
198.431640625 118.22265625 m 0
 198.431640625 113.853515625 204.90625 112 210.279296875 112 c 0
 214.69140625 112 218.368164062 114.32421875 220.430664062 116.46484375 c 0
 276.109375 174.244140625 354.55859375 256.182617188 372.638671875 276.419921875 c 0
 374.123046875 278.08203125 373.443359375 280.501953125 373.443359375 282.165039062 c 0
 373.443359375 300.08984375 344.09765625 290.22265625 344.09765625 301.2890625 c 0
 344.09765625 325.66796875 393.99609375 380.135742188 400.065429688 426.32421875 c 1
 400.065429688 432 l 1
 374.438476562 432 343.1484375 398.998046875 328.3828125 384.6328125 c 0
 255.461914062 313.048828125 198.431640625 222.794921875 198.431640625 118.22265625 c 0
281.424804688 67 m 1
 227.206054688 42.0810546875 176.260742188 -10 112.630859375 -10 c 0
 60.091796875 -10 28 31.9677734375 28 87.6923828125 c 0
 28 249.391601562 177.133789062 423.12890625 297.151367188 486.952148438 c 0
 338.780273438 507.97265625 380.369140625 515 423.630859375 515 c 0
 481.579101562 515 532.825195312 503.477539062 532.825195312 447.79296875 c 0
 532.825195312 388.37890625 491.916015625 360.459960938 463.955078125 319.797851562 c 0
 450.206054688 299.802734375 493.450195312 283.931640625 493.450195312 267.854492188 c 2
 493.450195312 251.046875 l 1
 481.583984375 166.779296875 363.626953125 -147.263671875 301.076171875 -190.83984375 c 0
 278.674804688 -206.337890625 243.490234375 -220 218.952148438 -220 c 0
 204.412109375 -220 196.217773438 -206.112304688 196.217773438 -188.551757812 c 0
 196.217773438 -107.360351562 281.424804688 -24.83203125 281.424804688 54.583984375 c 0
 281.424804688 58.72265625 281.424804688 62.861328125 281.424804688 67 c 1
EndSplineSet
EndChar

StartChar: r
Encoding: 114 114 65
Width: 395
Flags: HW
HStem: 366.082 130.918<169.961 247.841>
VStem: 28 138.396<42.382 162.975> 260.725 104.185<317.998 451.837>
LayerCount: 2
Fore
SplineSet
259.103515625 456 m 0
 282.484375 456 304.483398438 497.790039062 325.103515625 497 c 0
 350.65625 497 364.909179688 460.47265625 364.909179688 428.885742188 c 0
 364.909179688 374.998046875 297.36328125 220 249.103515625 220 c 0
 246.940429688 220 244.104492188 226.270507812 244.104492188 233.63671875 c 0
 244.104492188 248.350585938 260.724609375 300.811523438 260.724609375 335.18359375 c 0
 260.724609375 353.116210938 256.791015625 366.08203125 245.124023438 366.08203125 c 0
 217.067382812 366.08203125 181.784179688 110.231445312 166.395507812 68.68359375 c 0
 157.388671875 42.5625 94.5166015625 3 70.103515625 3 c 0
 38.326171875 3 28 28.8388671875 28 61.0673828125 c 0
 28 176.770507812 112.032226562 497 222.103515625 497 c 0
 253.837890625 497 246.098632812 456 259.103515625 456 c 0
EndSplineSet
EndChar

StartChar: s
Encoding: 115 115 66
Width: 429
Flags: W
HStem: -11 58<93.8813 183.244> 453.584 61.416<255.551 339.681>
VStem: 28 106.451<47.106 110.906> 73.0049 138.812<234.311 360.535> 215.551 146.713<133.667 251.207> 293.654 105.731<362.927 453.141>
LayerCount: 2
Fore
SplineSet
211.817382812 330.872070312 m 0xd4
 211.817382812 246.490234375 362.263671875 298.366210938 362.263671875 204.046875 c 0
 362.263671875 95.3974609375 203.370117188 -11 118.181640625 -11 c 0
 69.5810546875 -11 28 3.05859375 28 51.654296875 c 0
 28 111.09375 96.6376953125 171 150.029296875 171 c 0
 156.91015625 171 162.78125 171.404296875 162.78125 168.799804688 c 0
 162.78125 146.1796875 134.451171875 117.096679688 134.451171875 75.9072265625 c 0
 134.451171875 64.962890625 135.8515625 47 150.029296875 47 c 0
 174.6328125 47 215.55078125 100.543945312 215.55078125 138.625 c 0xe8
 215.55078125 216.711914062 73.0048828125 187.614257812 73.0048828125 281.0078125 c 0
 73.0048828125 405.928710938 229.86328125 515 315.181640625 515 c 0
 364.1796875 515 399.385742188 480.350585938 399.385742188 430.541015625 c 0
 399.385742188 377.537109375 340.116210938 291.559570312 293.90234375 291.559570312 c 0
 282.760742188 291.559570312 269.943359375 297.387695312 269.943359375 304.984375 c 0
 269.943359375 341.653320312 293.629882812 374.681640625 293.654296875 418.991210938 c 0
 293.654296875 443.811523438 288.635742188 453.583984375 281.083007812 453.583984375 c 0
 258.140625 453.583984375 211.817382812 363.3828125 211.817382812 330.872070312 c 0xd4
EndSplineSet
EndChar

StartChar: t
Encoding: 116 116 67
Width: 395
Flags: W
HStem: -10 21G<88.9194 146.468> 681 20G<290.148 335.469 347.06 352.168>
VStem: 28 164.521<67.5227 212.932>
LayerCount: 2
Fore
SplineSet
28 99.3193359375 m 0
 28 195.861328125 77.794921875 270.336914062 104.530273438 353.466796875 c 1
 88.3359375 362.633789062 75.341796875 369.852539062 75.341796875 389.396484375 c 0
 77.5595703125 474.076171875 157.298828125 470.967773438 174.916015625 525.142578125 c 0
 201.091796875 605.639648438 245.236328125 701 335.059570312 701 c 0
 335.877929688 701 336.6875 700.977539062 337.487304688 700.93359375 c 1
 336.646484375 699.909179688 336.059570312 698.8203125 336.059570312 698 c 2
 336.059570312 689.91015625 l 1
 339.137695312 691.44921875 347.059570312 693.819335938 347.059570312 699 c 1
 357.276367188 695.403320312 364.647460938 687.001953125 364.647460938 674.177734375 c 0
 364.647460938 609.783203125 307.626953125 564.268554688 290.139648438 504.814453125 c 0
 284.46875 485.534179688 348.293945312 496.686523438 348.293945312 469.55859375 c 0
 348.293945312 394.833984375 276.142578125 381.830078125 242.647460938 368.190429688 c 0
 217.728515625 358.04296875 192.521484375 215.84765625 192.521484375 158.032226562 c 0
 192.521484375 81.4931640625 245.717773438 88.94921875 258.630859375 85.53125 c 1
 226.225585938 37.5458984375 173.875976562 -10 119.059570312 -10 c 0
 58.779296875 -10 28 36.158203125 28 99.3193359375 c 0
337.487304688 700.93359375 m 1
 340.890625 700.744140625 344.109375 700.153320312 347.059570312 699.168945312 c 1
 347.059570312 704 l 1
 345.767578125 704 338.8125 702.545898438 337.487304688 700.93359375 c 1
EndSplineSet
EndChar

StartChar: u
Encoding: 117 117 68
Width: 555
Flags: HW
HStem: -10 21G<390.821 407.397> 495 20G<252.393 263.595>
LayerCount: 2
Fore
SplineSet
319.17578125 156.5703125 m 1
 249.274414062 111.227539062 157.358398438 -12 69.564453125 -12 c 0
 37.35546875 -12 28 19.28125 28 54.048828125 c 0
 28 185.5546875 125.233398438 414.502929688 200.833007812 492.853515625 c 0
 217.124023438 509.736328125 242.680664062 515 262.102539062 515 c 0
 294.888671875 515 313.393554688 491.470703125 313.393554688 455.701171875 c 0
 313.393554688 368.493164062 236.04296875 283.255859375 207.360351562 196.1796875 c 0
 203.689453125 185.03515625 212.970703125 179.616210938 220.720703125 179.616210938 c 0
 308.672851562 179.616210938 408.991210938 418.165039062 491.564453125 418.165039062 c 0
 516.384765625 418.165039062 523.723632812 402.455078125 523.723632812 378.071289062 c 0
 523.723632812 260.291015625 498.004882812 144.275390625 476.842773438 24.9853515625 c 0
 471.272460938 -6.4150390625 420.84375 -10 393.947265625 -10 c 0
 336.541015625 -10 314.17578125 21.8505859375 314.17578125 77.19140625 c 0
 314.17578125 97.7421875 320.129882812 129.868164062 323.694335938 143.750976562 c 1
 323.694335938 144 l 2
 323.694335938 148.666015625 320.896484375 152.99609375 319.17578125 156.5703125 c 1
EndSplineSet
EndChar

StartChar: v
Encoding: 118 118 69
Width: 431
Flags: HW
HStem: -10 224.326<91.0656 202.643> 495 20G<97.6579 165.03 353.6 393.707>
LayerCount: 2
Fore
SplineSet
91.0654296875 -10 m 0
 40.216796875 -10 28 92.9140625 28 181.1484375 c 0
 28 226.100585938 31.1708984375 267.243164062 34.01953125 289.024414062 c 0
 45.361328125 373.111328125 56.25 515 139.065429688 515 c 0
 185.071289062 515 219.52734375 480.150390625 213.03515625 430.612304688 c 2
 186.239257812 226.170898438 l 2
 184.453125 210.510742188 202.642578125 214.326171875 202.642578125 214.326171875 c 1
 202.642578125 214.64453125 l 1
 239.293945312 277.090820312 331.133789062 503.801757812 376.065429688 503.801757812 c 0
 395.94921875 503.801757812 401.201171875 482.196289062 401.201171875 456.837890625 c 0
 401.201171875 437.197265625 398.049804688 415.3046875 396.106445312 399.45703125 c 0
 383.327148438 303.250976562 165.401367188 -10 91.0654296875 -10 c 0
EndSplineSet
EndChar

StartChar: w
Encoding: 119 119 70
Width: 687
Flags: HW
HStem: 492 10.835G<164.361 223.634 377.028 381.029 417.635 451.013 622.436 643.495>
VStem: 89.0009 123.41<205.53 433.978> 359.354 45.0703<34.9102 49> 381.029 10.7227<506.063 514.931> 395.651 6.82422<19.2339 26.7744> 517.449 137.601<348.458 434.801>
LayerCount: 2
Fore
SplineSet
413.198242188 25 m 0
 413.198242188 26.6669921875 413.198242188 28.3330078125 413.198242188 30 c 1
 411.139648438 30 402.475585938 26.111328125 402.475585938 24 c 2
 402.475585938 15.91015625 l 1xcc
 405.516601562 17.4697265625 413.198242188 19.8369140625 413.198242188 25 c 0
381.029296875 500.790039062 m 1xdc
 390.98046875 508.258789062 406.23828125 512 423.920898438 512 c 0
 453.8828125 512 462.081054688 501.1875 462.081054688 472.237304688 c 0
 462.081054688 390.26171875 446.90234375 300.879882812 447.890625 175.890625 c 0
 447.890625 145.833984375 449.037109375 118.732421875 459.987304688 118.732421875 c 1
 541.198242188 234.778320312 464.670898438 502.834960938 632.000976562 502.834960938 c 0
 649.736328125 502.834960938 656.8203125 493.095703125 656.8203125 470.749023438 c 0
 656.8203125 338.82421875 592.041992188 215.265625 533.6796875 101.7890625 c 0
 505.895507812 47.857421875 467.46484375 -29 414.172851562 -29 c 0
 390.493164062 -29 373.166015625 -14.1416015625 361.440429688 2.98046875 c 1
 372.020507812 10.4609375 395.651367188 10.94921875 395.651367188 24.6630859375 c 0
 395.651367188 26.7021484375 395.651367188 28.7421875 395.651367188 30.78125 c 1
 389.689453125 30.78125 384.125 26.2255859375 384.125 26.2255859375 c 2
 384.125 25.705078125 384.125 25.18359375 384.125 24.6630859375 c 0
 384.125 22.509765625 387.745117188 18.544921875 389.802734375 18.544921875 c 1
 389.802734375 18.544921875 379.779296875 12.697265625 361.37890625 3.0703125 c 1
 334.875 41.818359375 321.454101562 95.15625 320.592773438 150.1328125 c 0
 320.592773438 154.306640625 322.368164062 175.451171875 322.368164062 195.42578125 c 0
 322.368164062 215.137695312 320.639648438 233.709960938 313.76953125 233.709960938 c 0
 271.89453125 233.709960938 219.762695312 27.7216796875 143.000976562 27.7216796875 c 0
 95.7939453125 27.7216796875 85.724609375 147.403320312 85.724609375 237.645507812 c 0
 85.724609375 275.166015625 87.4658203125 307.59765625 89.0009765625 324.221679688 c 1
 89.0009765625 324.384765625 l 1
 93.9052734375 424.267578125 120.23046875 499.862304688 208.4921875 499.862304688 c 0
 231.051757812 499.862304688 237.900390625 487.966796875 237.900390625 467.90625 c 0
 236.827148438 433.658203125 225.259765625 402.391601562 225.46484375 366.848632812 c 0
 225.46484375 362.568359375 226.01171875 358.321289062 226.01171875 354.072265625 c 0
 226.01171875 345.663085938 212.55078125 265.385742188 212.411132812 227.6328125 c 0
 212.379882812 219.307617188 211.15625 204.137695312 221.1640625 204.137695312 c 0
 253.868164062 204.137695312 344.498046875 483.96484375 381.029296875 502.118164062 c 1
 381.029296875 500.790039062 l 1xdc
356.629882812 51 m 1
 352.466796875 51 344.962890625 48.158203125 344.962890625 43 c 0
 344.962890625 35.7197265625 352.006835938 33.796875 356.629882812 31.42578125 c 1
 356.629882812 37.9501953125 356.629882812 44.4755859375 356.629882812 51 c 1
404.424804688 34.91015625 m 1
 407.467773438 36.4697265625 415.147460938 38.8369140625 415.147460938 44 c 2
 415.147460938 49 l 1
 413.088867188 49 404.424804688 45.111328125 404.424804688 43 c 2
 404.424804688 34.91015625 l 1
381.029296875 502.211914062 m 1xd4
 383.85546875 504.017578125 391.751953125 506.146484375 391.751953125 510 c 2
 391.751953125 515 l 1
 389.693359375 515 381.029296875 511.111328125 381.029296875 509 c 2
 381.029296875 502.211914062 l 1xd4
361.37890625 7.8251953125 m 0
 275.65625 -36.158203125 28.439453125 -160.607421875 28.0009765625 -160.607421875 c 0
 27.744140625 -160.607421875 111.7421875 -118.118164062 361.440429688 7.7373046875 c 1
 361.419921875 7.7666015625 361.3984375 7.7958984375 361.37890625 7.8251953125 c 0
EndSplineSet
EndChar

StartChar: x
Encoding: 120 120 71
Width: 536
Flags: W
HStem: -10 21G<316.834 364.041> 495 5.74023G<143.578 154.439 438.051 475.173>
VStem: 95.8877 269.647<238.244 489.179> 243.185 201.288<49.7229 114.028>
LayerCount: 2
Fore
SplineSet
159.533203125 500.728515625 m 0xe0
 237.64453125 515.717773438 271.077148438 428.44921875 313.088867188 404.903320312 c 1
 353.432617188 443.55078125 411.086914062 515 465.015625 515 c 0
 485.330078125 515 506.319335938 508.200195312 506.319335938 491.48046875 c 0
 506.319335938 426.49609375 365.53515625 345.043945312 365.53515625 278.2421875 c 0xe0
 365.53515625 198.24609375 444.47265625 137.620117188 444.47265625 56.28125 c 0
 444.47265625 8.23046875 380.442382812 -9.4638671875 347.639648438 -10 c 0
 286.029296875 -10 261.93359375 44.001953125 243.184570312 107.546875 c 0xd0
 240.372070312 117.080078125 234.876953125 115.388671875 233.431640625 115.388671875 c 0
 193.649414062 82.7060546875 125.19140625 -1.7998046875 77.015625 -1.8447265625 c 0
 46.2421875 -1.8447265625 28 19.0947265625 28 50.6669921875 c 0
 29.6953125 115.840820312 87.0458984375 144.739257812 126.288085938 181.873046875 c 0
 146.590820312 202.140625 201.65234375 235.7578125 195.694335938 269.336914062 c 0
 182.502929688 343.680664062 161.038085938 391.150390625 119.096679688 447.641601562 c 0
 112.4296875 458.034179688 95.8876953125 468.829101562 95.8876953125 478.486328125 c 0
 95.8876953125 499.87109375 133.84375 500.740234375 153.311523438 500.740234375 c 0
 155.567382812 500.740234375 157.661132812 500.728515625 159.533203125 500.728515625 c 0xe0
EndSplineSet
EndChar

StartChar: y
Encoding: 121 121 72
Width: 535
Flags: HW
HStem: -87.3896 11.3896<124.146 130.753> -76 10<124.146 136.883> 489 4<196.112 209.632>
VStem: 109.1 145.538<138.642 429.781> 124.146 10<-84.3233 -77.625>
LayerCount: 2
Fore
SplineSet
254.637695312 414 m 0
 254.51391073 360.106818637 247.068135569 249.794417531 247.068135569 179.939616647 c 0
 247.068135569 177.049328722 247.080882324 174.228301966 247.107421875 171.483398438 c 0
 247.107421875 152.633789062 248.197265625 136 257.515625 136 c 0
 360.084960938 136 346.284179688 490 482.146484375 490 c 0
 501.262001333 490 509.303082382 473.676942834 509.303082382 445.88666968 c 0
 509.303082382 408.318449506 494.608066849 349.793977796 472.711914062 282.309570312 c 0
 422.745260932 128.311285166 302.326171875 41.9111328125 188.208007812 -59.1904296875 c 0
 149.635742188 -93.36328125 91.234375 -142 45.146484375 -142 c 0x30
 36.4833984375 -142 28 -138.534179688 28 -131.947265625 c 0
 28 -102.96484375 53.8427734375 -63.0693359375 71.9169921875 -42.2841796875 c 0
 97.01953125 -13.4638671875 161.528320312 10.2666015625 163.448242188 22.3125 c 1
 163.448242188 22.4482421875 l 1
 139.424012436 100.39388863 105.701994208 188.685330223 105.701994208 283.815839163 c 0
 105.701994208 373.111357394 128.531720161 493.006091756 219.927522523 493.006091756 c 0
 220.303062449 493.006091756 220.679759614 493.004064666 221.057617188 493 c 0
 252.423828125 493 254.704101562 466.810546875 254.704101562 432.267578125 c 0
 254.704101562 426.390625 254.637695312 420.272460938 254.637695312 414 c 0
EndSplineSet
EndChar

StartChar: z
Encoding: 122 122 73
Width: 437
Flags: HW
HStem: 360 136<149.46 218.39>
LayerCount: 2
Fore
SplineSet
406.81640625 461.938476562 m 0
 406.81640625 356.219726562 264.556640625 246.020507812 216.584960938 155.27734375 c 1
 216.584960938 155 l 2
 216.584960938 151.188476562 217.319430771 146.464258324 220.249023438 146 c 0
 262.107516709 139.366602074 316.241210938 172 349.525390625 172 c 0
 355.1484375 172 357.624023438 166.9921875 355.587890625 155.797851562 c 0
 340.979492188 52.564453125 257.801757812 5 182.0703125 5 c 0
 117.428710938 5 28 25.5087890625 28 79.3818359375 c 0
 27.9326171875 111.56640625 90.7060546875 164.022460938 120.098632812 195.5 c 0
 184.309570312 264.919921875 230.263671875 323.532226562 280.09375 390.012695312 c 1
 280.09375 398 l 1
 264.349609375 398 l 1
 221.0546875 382.888671875 166.990234375 360 120.525390625 360 c 0
 105.640625 360 96.0419921875 369.216796875 96.0419921875 385.88671875 c 0
 96.0419921875 437.75390625 151.081054688 496 188.250976562 496 c 0
 227.763671875 496 246.993164062 493 280.948242188 493 c 0
 287.713867188 493 297.418945312 493.23046875 308.48046875 493.23046875 c 0
 348.688476562 493.23046875 406.81640625 490.18359375 406.81640625 461.938476562 c 0
EndSplineSet
EndChar

StartChar: sterling
Encoding: 163 163 74
Width: 973
Flags: HW
HStem: 49 161<430.354 632.981> 324 157<570.025 687.373> 505 21G<680.516 736.843> 782 102<753.184 801.762>
LayerCount: 2
Fore
SplineSet
31 72.568359375 m 0
 31 221.2578125 251.509765625 171.517578125 251.509765625 320.396484375 c 0
 251.509765625 343.951171875 230.215820312 354.384765625 230.215820312 372.639648438 c 0
 230.215820312 465.760742188 323.797851562 463.961914062 346.018554688 498.28125 c 0
 457.594726562 675.658203125 602.458007812 884 809.901367188 884 c 0
 883.357421875 884 941.293945312 839.647460938 941.293945312 766.629882812 c 0
 941.293945312 640.854492188 790.52734375 509.36328125 687.724609375 505 c 0
 675.264648438 505 668.439453125 509.548828125 668.439453125 521.224609375 c 0
 672.741210938 578.94921875 783.499023438 646.594726562 800.987304688 776.315429688 c 0
 800.987304688 778.209960938 800.987304688 780.10546875 800.987304688 782 c 1
 732.606445312 782 577.637695312 553.196289062 569.541992188 497.732421875 c 0
 568.549804688 493.705078125 569.34765625 481 581.311523438 481 c 2
 736.989257812 481 l 2
 749.658203125 481 756.090820312 465.688476562 756.090820312 450.598632812 c 0
 752.84375 397.807617188 682.288085938 324 636.48828125 324 c 2
 478.840820312 324 l 2
 455.969726562 324 420.818359375 247.204101562 419.7734375 238.721679688 c 0
 418.887695312 233.325195312 418.416015625 220.143554688 430.719726562 218.071289062 c 0
 477.283203125 210.02734375 499.59765625 210 543.870117188 210 c 0
 646.7578125 208.293945312 710.40234375 296 824.731445312 296 c 0
 833.416015625 296 833.90625 291.576171875 831.78125 276.69921875 c 0
 820.30078125 195.279296875 660.475585938 69.814453125 590.213867188 49.939453125 c 0
 577.034179688 46.2109375 522.612304688 49 509.909179688 49 c 1
 509.909179688 49 l 1
 422.853515625 49 338.5859375 66 251.236328125 66 c 0
 190.922851562 66 147.572265625 11 91.7314453125 11 c 0
 56.9111328125 11 31 38.2138671875 31 72.568359375 c 0
EndSplineSet
EndChar

StartChar: section
Encoding: 167 167 75
Width: 749
Flags: HW
HStem: -254 98<186.645 258.436> 783 83<518.947 579.923>
LayerCount: 2
Fore
SplineSet
382.022460938 420 m 0
 350.358398438 420 342.118164062 360.052734375 342.118164062 344.184570312 c 0
 342.118164062 294.084960938 378.833007812 222 426.03515625 222 c 0
 460.905273438 222 470.779296875 265.326171875 470.783203125 293.505859375 c 0
 470.783203125 345.61328125 431.1640625 420 382.022460938 420 c 0
31.0009765625 -136.748046875 m 0
 30.576171875 -55.7353515625 129.512695312 -2.220703125 187.387695312 0 c 0
 192.020507812 0 196.373046875 0.2421875 200.225585938 0.2421875 c 0
 209.8046875 0.2421875 216.2890625 -1.255859375 216.2890625 -11.7021484375 c 0
 212.705078125 -52.0556640625 185.942382812 -82.521484375 186.018554688 -128.296875 c 0
 186.018554688 -142.56640625 191.836914062 -156 210.861328125 -156 c 0
 264.780273438 -156 316.4140625 -74.1181640625 316.4140625 -16.78515625 c 0
 316.4140625 89.5126953125 147.448242188 140.48828125 147.448242188 277.103515625 c 0
 147.448242188 343.46875 174.2890625 401.008789062 210.71875 449.815429688 c 0
 229.979492188 474.624023438 280.298828125 492.260742188 280.298828125 539.654296875 c 0
 280.298828125 571.9921875 265.739257812 601.619140625 265.739257812 632.869140625 c 0
 265.739257812 793.407226562 440.318359375 865.549804688 560.030273438 866 c 0
 647.291015625 866 716.944335938 833.173828125 716.944335938 748.5390625 c 0
 716.944335938 662.45703125 659.818359375 597.451171875 585.459960938 596 c 0
 567.787109375 596 550.018554688 596.540039062 550.018554688 611.537109375 c 0
 550.018554688 657.102539062 580.975585938 691.12109375 580.975585938 746.041015625 c 0
 580.975585938 761.077148438 578.977539062 783 561.986328125 783 c 0
 516.924804688 780.795898438 455.837890625 706.981445312 455.837890625 657.498046875 c 0
 455.837890625 567.12109375 663.836914062 522.735351562 663.836914062 377.124023438 c 0
 663.836914062 261.568359375 591.68359375 176.658203125 507.615234375 115.043945312 c 0
 502.364257812 111.1953125 506.223632812 102.08203125 506.223632812 95.787109375 c 0
 506.223632812 67.638671875 514.290039062 41.677734375 514.290039062 13.9990234375 c 0
 514.290039062 -149.530273438 348.674804688 -252.61328125 215.750976562 -254 c 0
 127.973632812 -254 31.0009765625 -219.680664062 31.0009765625 -136.748046875 c 0
EndSplineSet
EndChar

StartChar: fi
Encoding: 64257 64257 76
Width: 623
Flags: HW
HStem: -198 21G<78.996 118.221> 478.549 20G<480.822 534.961> 670 74<431.754 511.146>
VStem: 380.938 153.547<297.824 375.818>
LayerCount: 2
Fore
SplineSet
593.357421875 674.928710938 m 0
 593.66796875 616.061523438 558.455078125 547 510.432617188 547 c 0
 483.66015625 547 466.84765625 562.836914062 466.84765625 591.59375 c 0
 466.435546875 617.4140625 482.25390625 632.536132812 486.283203125 658.787109375 c 0
 488.599609375 668.052734375 478.935546875 670 474.432617188 670 c 0
 382.8203125 670 273.239257812 361.400390625 263.87109375 288.897460938 c 1
 263.87109375 288.546875 l 2
 263.87109375 285.215820312 264.840820312 281.296875 264.840820312 281.296875 c 1
 264.840820312 277.790039062 l 1
 274.725585938 277.790039062 l 1
 274.725585938 274.34375 l 1
 276.822265625 274.22265625 286.750976562 273.330078125 290.065429688 273.330078125 c 0
 320.294921875 273.330078125 362.784179688 284.750976562 380.938476562 330.323242188 c 0
 402.614257812 384.737304688 453.211914062 498.548828125 508.432617188 498.548828125 c 0
 536.037109375 498.548828125 543.474609375 470.469726562 543.474609375 437.811523438 c 0
 543.474609375 312.201171875 539.059570312 349.467773438 491.688476562 194.788085938 c 0
 477.459960938 151.483398438 427.864257812 0.431640625 392.9609375 0.431640625 c 0
 351.5546875 0.431640625 309.852539062 27.4619140625 316.172851562 74.322265625 c 2
 329.756835938 175.033203125 l 1
 300.737304688 154.107421875 270.616210938 136.20703125 240.19921875 133.217773438 c 1
 240.19921875 129.669921875 l 1
 229.416992188 76.2861328125 206.11328125 23.0625 191.3125 -29.556640625 c 0
 170.329101562 -99.59375 155.008789062 -198 81.4326171875 -198 c 0
 42.5888671875 -198 28 -180.803710938 28 -144.306640625 c 0
 28 -10.3193359375 81.25 102.3671875 119.198242188 225.448242188 c 0
 178.557617188 417.629882812 299.7421875 744 506.432617188 744 c 0
 560.606445312 744 593.357421875 728.481445312 593.357421875 674.928710938 c 0
EndSplineSet
EndChar

StartChar: fl
Encoding: 64258 64258 77
Width: 838
Flags: HW
HStem: -5 136<439.328 531.108> 121 145<276.955 333.282> 616 139<315.252 436.49> 651 105<677.086 742.431>
LayerCount: 2
Fore
SplineSet
699.161132812 225.090820312 m 0
 699.161132812 109.6875 540.903320312 -3.505859375 454.83984375 -5 c 0x90
 423.81640625 -5 397.243164062 -1.09375 369.58984375 12.5029296875 c 0
 348.186523438 23.0263671875 335.833007812 121 319.346679688 121 c 0
 302.748046875 121 239.080078125 120.474609375 231.436523438 104.53515625 c 0
 207.989257812 55.6376953125 191.043945312 -122.583007812 129.353515625 -183.129882812 c 0
 120.95703125 -191.37109375 102.481445312 -192 88.5205078125 -192 c 0
 41.1083984375 -192 28 -171.638671875 28 -133.923828125 c 0
 28 -117.901367188 30.365234375 -98.748046875 33.4716796875 -76.693359375 c 0
 56.669921875 91.7529296875 260.302734375 755 424.40234375 755 c 0
 450.02734375 755 465.125976562 747.02734375 465.125976562 716.689453125 c 0
 464.172851562 664.977539062 409.157226562 486 375.310546875 486 c 0
 368.6953125 486 363.569335938 495.833984375 365.435546875 507.235351562 c 0
 369.467773438 535.989257812 386.247070312 561.2109375 386.559570312 598.1796875 c 0
 386.604492188 603.319335938 383.658203125 622.844726562 377.274414062 616 c 0
 334.296875 569.921875 292.288085938 347.61328125 275.1640625 278.27734375 c 1
 275.1640625 278 l 1
 275.1640625 278 272.3203125 266 282.037109375 266 c 2
 356.65625 266 l 2x60
 366.799804688 266 399.880859375 362.642578125 412.014648438 385.594726562 c 0
 473.350585938 499.451171875 623.635742188 756 740.520507812 756 c 0
 794.655273438 756 808.314453125 709.407226562 808.314453125 658.120117188 c 0
 808.314453125 431.700195312 668.306640625 270.49609375 511.286132812 184.466796875 c 0
 500.630859375 179.744140625 502.8984375 174.08984375 502.9453125 172.280273438 c 0
 502.379882812 168.315429688 502.084960938 164.544921875 502.084960938 161.010742188 c 0
 502.084960938 142.892578125 509.830078125 131 528.477539062 131 c 0
 593.364257812 131.807617188 643.032226562 248.990234375 687.99609375 248.990234375 c 0
 695.481445312 248.990234375 699.161132812 237.194335938 699.161132812 225.090820312 c 0
533.38671875 284 m 1
 622.750976562 335.497070312 694.811523438 519.33984375 708.072265625 636.587890625 c 0
 708.072265625 643.505859375 706.3046875 651 697.520507812 651 c 0x10
 657.772460938 651 532.23828125 349.709960938 524.549804688 294.35546875 c 1
 524.549804688 294 l 2
 524.549804688 289.979492188 526.913085938 284 533.38671875 284 c 1
EndSplineSet
EndChar

StartChar: AE
Encoding: 198 198 78
Width: 1255
Flags: HW
HStem: -29 159<710.362 916.72> 171.996 165.004<405.21 517.495> 179.991 157.009<405.291 539.816> 203 134<485.222 550.871> 270 150<810.874 1065.22> 724 106<1007.8 1099.65>
LayerCount: 2
Fore
SplineSet
473.666992188 788.98046875 m 0
 473.666992188 824.041015625 554.5390625 819.40625 576.193359375 830 c 1
 584.811523438 830 l 2
 676.59375 830 715.064453125 739.334960938 732.163085938 652 c 1
 759.077148438 652 l 1
 852.881835938 747.887695312 974.064453125 830 1097.453125 830 c 0
 1176.70703125 830 1224.62109375 797.499023438 1224.62109375 723.0234375 c 0
 1224.62109375 588.983398438 1097.45214844 458.094726562 981.663085938 453 c 0
 969.3046875 453 950.766601562 462.388671875 950.766601562 476.036132812 c 0
 950.766601562 544.16015625 1078.20898438 615.40234375 1090.48828125 706.385742188 c 0
 1091.95117188 719.681640625 1080.63574219 724 1072.7109375 724 c 0
 979.92578125 724 817.091796875 550.631835938 802.6328125 449.46484375 c 0
 801.763671875 445.004882812 800.971679688 431.765625 811.745117188 430.216796875 c 0
 868.59765625 422.018554688 940.979492188 420 1007.39453125 420 c 0
 1047.78417969 420 1086.28613281 421.985351562 1117.98144531 421.985351562 c 0
 1133.91503906 421.985351562 1138.3359375 417.658203125 1138.3359375 407.29296875 c 0
 1136.75097656 351.583007812 1063.30664062 270 1016.30078125 270 c 2
 796.59765625 270 l 2
 779.600585938 270 779.659179688 242.732421875 779.639648438 229.4609375 c 0
 779.639648438 175.357421875 814.473632812 130 866.86328125 130 c 0
 966.576171875 130 1066.12890625 233 1118.37792969 233 c 0
 1130.38183594 233 1139.88085938 219.689453125 1139.88085938 204.451171875 c 0
 1139.88085938 66.6162109375 851.35546875 -29 752.063476562 -29 c 0
 668.66015625 -29 592.067382812 36.7919921875 574.862304688 121.732421875 c 0x8c
 570.16015625 144.947265625 567.625976562 203 549.184570312 203 c 0x94
 528.399414062 203 496.350585938 180.891601562 477.622070312 179.991210938 c 0xa4
 450.967773438 177.918945312 322.069335938 188.924804688 303.6015625 171.920898438 c 0
 218.153320312 93.24609375 193.618164062 -17.814453125 73.3779296875 -14 c 0
 51.412109375 -14 28 5.5478515625 28 29.9423828125 c 0
 28 84.763671875 120.846679688 153.008789062 120.846679688 183.407226562 c 0
 120.846679688 207.357421875 100.037109375 223.186523438 100.037109375 243.630859375 c 0
 100.037109375 328.819335938 205.80859375 312.234375 248.24609375 345.745117188 c 0
 275.88671875 367.571289062 495.594726562 703.411132812 496.186523438 740.998046875 c 0
 496.186523438 766.15234375 473.666992188 771.3984375 473.666992188 788.98046875 c 0
536.318359375 337 m 1xa4
 561.858398438 350.10546875 552.84765625 367.595703125 552.84765625 409.022460938 c 0
 552.84765625 461.765625 551.341796875 549 525.432617188 549 c 1
 490.438476562 505.89453125 409.845703125 409.38671875 404.260742188 349.571289062 c 0
 404.260742188 343.876953125 406.107421875 337 414.590820312 337 c 2xc4
 536.318359375 337 l 1xa4
EndSplineSet
EndChar

StartChar: OE
Encoding: 338 338 79
Width: 1228
Flags: HW
HStem: -22 168<700.761 828.122> 88 7<358.09 531.23> 270 145<767.468 1018.73> 678 145<388.838 591.529> 732 98<987.302 1098.06>
LayerCount: 2
Fore
SplineSet
248.26953125 -29 m 0
 97.88671875 -29 28 101.723632812 28 246.534179688 c 0
 28 545.666015625 329.553710938 823 573.771484375 823 c 0x70
 609.284179688 823 657.1953125 818.609375 683.061523438 792.46484375 c 0
 698.967773438 776.387695312 754.864257812 659 767.6875 659 c 0
 769.162109375 659 774.258789062 657.571289062 778.149414062 661.50390625 c 0
 863.856445312 752.114257812 980.58984375 830 1094.34765625 830 c 0
 1161.47265625 830 1198.45703125 790.146484375 1198.45703125 726.760742188 c 0
 1198.45703125 591.704101562 1057.03613281 458.130859375 940.826171875 453 c 0
 927.836914062 453 915.952148438 458.068359375 915.952148438 468.640625 c 0
 916.029296875 490.467773438 1059.23046875 597.711914062 1064.85449219 713.586914062 c 0
 1064.85449219 730.560546875 1052.94335938 732 1035.80566406 732 c 0
 952.55859375 729.975585938 776.5546875 547.586914062 767.291015625 441.388671875 c 0
 767.291015625 431.376953125 769.805664062 415 784.505859375 415 c 2
 1097.34765625 415 l 2
 1104.91015625 415 1105.56933594 404.266601562 1104.38671875 393.622070312 c 0
 1098.859375 354.013671875 1044.03613281 314.30078125 1018.73730469 291.797851562 c 0
 996.294921875 272.895507812 971.986328125 269 946.762695312 269 c 0
 934.163085938 269 922.291015625 270 909.166992188 270 c 2
 898.17578125 270 l 1
 874.897460938 268.934570312 770.03515625 265.188476562 746.099609375 261.610351562 c 0
 732.512695312 259.579101562 732.172851562 244.555664062 732.172851562 232.771484375 c 2
 732.172851562 227.426757812 l 2
 732.172851562 171.35546875 778.51953125 146 821.11328125 146 c 0
 935.479492188 146 1028.94433594 247 1093.34765625 247 c 0
 1097.77441406 247 1102.46191406 233.384765625 1101.3828125 222.600585938 c 0
 1082.06738281 86.427734375 824.943359375 -22 723.166015625 -22 c 0xa8
 678.354492188 -22 637.797851562 -12.21484375 600.946289062 9.349609375 c 0
 579.346679688 21.4775390625 563.331054688 88 531.228515625 88 c 0
 508.28515625 88 502.530273438 69.607421875 481.91015625 55.109375 c 0
 408.21484375 3.4638671875 331.041015625 -29 248.26953125 -29 c 0
448.122070312 678 m 0
 329.551757812 678 253.165039062 437.96875 240.403320312 344.692382812 c 0
 236.842773438 319.260742188 234.529296875 292.54296875 234.529296875 266.426757812 c 0
 234.529296875 177.208007812 261.532226562 95 358.088867188 95 c 0
 478.625 95 556.998046875 340.00390625 568.775390625 427.29296875 c 0
 571.587890625 447.186523438 573.1640625 468.181640625 573.1640625 489.212890625 c 0
 573.1640625 583.256835938 541.641601562 678 448.122070312 678 c 0
EndSplineSet
EndChar

StartChar: ae
Encoding: 230 230 80
Width: 881
Flags: HW
HStem: 150 135<457.004 643.823> 612 137<701.276 764.002> 628 136<371.032 566.362>
LayerCount: 2
Fore
SplineSet
621.670898438 506 m 1
 661.4375 506.120117188 738.013671875 530.80859375 738.013671875 593.927734375 c 0
 738.013671875 611.52734375 718.381835938 612 710.864257812 612 c 0
 664.518554688 612 628.099609375 554.024414062 621.670898438 506 c 1
274.370117188 338 m 0
 371.918945312 338 455.883789062 484.86328125 458.052734375 596.551757812 c 0
 458.052734375 613.98046875 453.266601562 628 434.615234375 628 c 0xa0
 345.592773438 623.995117188 242.483398438 495.296875 238.639648438 391.436523438 c 0
 238.639648438 365.038085938 246.862304688 338 274.370117188 338 c 0
29 281.698242188 m 0
 29 519.0703125 385.650390625 764 547.670898438 764 c 0xa0
 585.052734375 764 577.446289062 694 620.419921875 694 c 0
 667.303710938 694 713.993164062 749 761.525390625 749 c 0xc0
 819.896484375 749 850.622070312 706.30078125 850.622070312 646.4453125 c 0
 850.622070312 481.5390625 695.330078125 436.151367188 587.723632812 414.756835938 c 0
 567.060546875 410.6484375 569.481445312 357.379882812 569.44921875 332.046875 c 0
 569.44921875 286.428710938 589.650390625 285 615.50390625 285 c 0
 672.141601562 285 711.606445312 356.228515625 742.258789062 357.000976562 c 1
 744.10546875 222.633789062 594.453125 150.58984375 505.397460938 150 c 0
 408.611328125 150 398.240234375 193.581054688 398.240234375 301.231445312 c 2
 398.240234375 306.272460938 l 1
 377.427734375 306.272460938 l 1
 307.505859375 229.560546875 224.474609375 157.057617188 133.525390625 157.057617188 c 0
 64.5341796875 157.057617188 29 209.94921875 29 281.698242188 c 0
EndSplineSet
EndChar

StartChar: oe
Encoding: 339 339 81
Width: 910
Flags: HW
HStem: 133 128<204.494 307.842> 140 137<478.992 657.258>
LayerCount: 2
Fore
SplineSet
589.92578125 367 m 0
 642.541015625 367 734.891601562 560.875 735.149414062 631.615234375 c 0
 735.149414062 641.155273438 732.314453125 649 721.764648438 649 c 0
 656.7890625 649 585.0234375 474.466796875 577.174804688 415.627929688 c 1
 577.174804688 381.016601562 l 1x00
 578.561523438 368.202148438 583.717773438 367 589.92578125 367 c 0
372.002929688 593.251953125 m 0
 371.633789062 643.651367188 463.405273438 661.740234375 495.473632812 663 c 0
 520.7265625 663 539.34765625 645 569.264648438 645 c 0
 605.232421875 645 684.788085938 740 769.135742188 740 c 0
 837.178710938 740 880.209960938 695.654296875 880.209960938 625.140625 c 0
 880.209960938 490.161132812 759.5546875 405.670898438 673.610351562 342.063476562 c 0
 653.741210938 327.358398438 606.420898438 318.172851562 606.420898438 296.131835938 c 0
 606.420898438 280.5078125 620.8515625 277 630.264648438 277 c 0
 684.25390625 277 724.661132812 340 769.135742188 340 c 0
 780.588867188 340 791.34375 326.955078125 791.34375 314.322265625 c 0
 791.34375 220.068359375 553.830078125 140 501.376953125 140 c 0x40
 454.200195312 140 424.392578125 172.537109375 399.408203125 212.142578125 c 1
 332.123046875 162.8671875 286.045898438 133 209.166015625 133 c 0x80
 95.7705078125 133 30 216.98828125 30 333.953125 c 0
 30 556.9765625 259.809570312 756.700195312 426.602539062 763 c 0
 451.78125 763 478.946289062 754.567382812 472.895507812 729.71484375 c 0
 469.068359375 713.995117188 329.497070312 635.6484375 297.766601562 592.069335938 c 0
 253.037109375 530.637695312 221.413085938 450.737304688 221.413085938 371.188476562 c 0
 221.413085938 313.543945312 252.389648438 261 304.6015625 261 c 0x80
 375.743164062 261 419.249023438 343.56640625 419.249023438 425.5390625 c 0
 419.249023438 499.373046875 372.002929688 549.896484375 372.002929688 593.251953125 c 0
EndSplineSet
EndChar

StartChar: onehalf
Encoding: 189 189 82
Width: 841
Flags: HW
HStem: -11 21G<52.3881 109.059> 354 90<619.537 703.959> 383 518<81.37 334.938>
LayerCount: 2
Fore
SplineSet
41.5283203125 413.7734375 m 0
 41.5283203125 528.936523438 178.174804688 613.197265625 178.174804688 727.940429688 c 0
 178.174804688 758.235351562 142.037109375 746.142578125 142.037109375 772.080078125 c 0
 142.037109375 840.076171875 289.692382812 901 334.9375 901 c 0
 351.2421875 901 359.370117188 896.092773438 359.370117188 881.048828125 c 0
 359.370117188 802.997070312 300.767578125 731.309570312 271.501953125 658.9296875 c 0
 230.7890625 558.23828125 201.270507812 383 81.3701171875 383 c 0
 56.4755859375 383 41.5283203125 389.573242188 41.5283203125 413.7734375 c 0
771.40234375 842.241210938 m 0
 769.83203125 741.868164062 157.615234375 -11 62.3701171875 -11 c 0
 44.01171875 -11 30 7.9267578125 30 28.0576171875 c 0
 30 104.5546875 248.868164062 360.815429688 299.57421875 429.974609375 c 0
 318.244140625 454.995117188 403.592773438 568.905273438 420.388671875 592.049804688 c 0
 477.1328125 671.141601562 631.416992188 908 717.370117188 908 c 0
 751.723632812 908 771.40234375 879.096679688 771.40234375 842.241210938 c 0
453.327148438 -42.044921875 m 0
 453.327148438 45.4560546875 641.504882812 137.717773438 661.8203125 287.29296875 c 1
 661.8203125 301.2578125 l 2
 662.724609375 307.3984375 665.466796875 314.521484375 665.466796875 321.509765625 c 0
 665.466796875 338.139648438 661.028320312 354 643.215820312 354 c 0
 595.982421875 354 611.28125 242.399414062 597.150390625 203.553710938 c 0
 594.200195312 195.4453125 587.193359375 198 580.381835938 198 c 0
 542.349609375 198 526.9921875 241.288085938 526.9921875 281.313476562 c 0
 528.734375 383.006835938 621.678710938 444 700.370117188 444 c 0xc0
 763.495117188 444 808.805664062 411.26171875 808.805664062 349.198242188 c 0
 808.805664062 210.650390625 647.220703125 135.569335938 635.411132812 48.70703125 c 0
 635.411132812 46.8046875 635.411132812 44.90234375 635.411132812 43 c 1
 677.009765625 43 722.8984375 50.314453125 763.455078125 50.9541015625 c 1
 749.724609375 -18.8681640625 688.50390625 -65.8876953125 630.38671875 -88.00390625 c 0
 619.642578125 -92.091796875 584.01171875 -89 575.47265625 -89 c 0
 527.676757812 -89 453.327148438 -85.3232421875 453.327148438 -42.044921875 c 0
EndSplineSet
EndChar

StartChar: onequarter
Encoding: 188 188 83
Width: 822
Flags: HW
HStem: 382 524<86.8947 339.267>
LayerCount: 2
Fore
SplineSet
37.0048828125 419.772460938 m 0
 37.0048828125 528.6015625 171.970703125 614.5546875 171.970703125 724.793945312 c 0
 171.970703125 757.637695312 137.411132812 745.854492188 137.411132812 776.034179688 c 0
 139.248046875 837.416992188 291.309570312 903.932617188 339.266601562 906 c 0
 352.864257812 906 360.461914062 896.341796875 360.461914062 881.102539062 c 0
 360.461914062 823.004882812 304.07421875 734.198242188 284.72265625 687.971679688 c 0
 245.3046875 593.80859375 209.364257812 382 86.89453125 382 c 0
 57.17578125 382 37.0048828125 391.83203125 37.0048828125 419.772460938 c 0
31.89453125 37 m 2
 31.89453125 38.3564453125 33.5947265625 54.564453125 35.5908203125 58.1513671875 c 0
 131.342773438 230.224609375 614.962890625 914 724.89453125 914 c 0
 756.03125 914 767.244140625 883.439453125 767.244140625 852.927734375 c 0
 767.244140625 719.969726562 330.15234375 238.883789062 228.8125 125.48828125 c 0
 192.977539062 85.3896484375 122.073242188 -5 60.89453125 -5 c 0
 40.1259765625 -5 31 5.796875 31 25.193359375 c 0
 31 28.728515625 31.3037109375 32.55078125 31.89453125 36.64453125 c 2
 31.89453125 37 l 2
515.096679688 -66.314453125 m 0
 515.096679688 -5.9873046875 552.994140625 32.810546875 561.705078125 100 c 1
 461.8046875 100 l 1
 457.779296875 103.208984375 448.4375 111.071289062 448.4375 115.081054688 c 0
 448.4375 225.686523438 572.801757812 443 684.89453125 443 c 0
 699.818359375 443 708.362304688 439.799804688 708.362304688 426.344726562 c 0
 708.362304688 347.004882812 586.325195312 290.64453125 574.782226562 209 c 1
 626.728515625 209 l 2
 638.557617188 209 688.291992188 303 768.89453125 303 c 0
 777.096679688 303 790.032226562 307.447265625 790.032226562 297.321289062 c 0
 790.032226562 282.110351562 781.889648438 243.012695312 781.83984375 228.173828125 c 0
 781.83984375 214.243164062 784.715820312 211.8125 784.715820312 201.456054688 c 0
 785.224609375 157.525390625 745.538085938 148.829101562 722.877929688 116.978515625 c 0
 653.10546875 23.8623046875 690.98828125 -91 556.088867188 -91 c 0
 531.014648438 -91 515.096679688 -89.814453125 515.096679688 -66.314453125 c 0
EndSplineSet
EndChar

StartChar: threequarters
Encoding: 190 190 84
Width: 940
Flags: HW
HStem: 350 83<146.448 216.551> 816 90<272.263 360.728>
LayerCount: 2
Fore
SplineSet
634.96484375 -61.9912109375 m 0
 634.96484375 -10.2822265625 682.665039062 22.8408203125 683.188476562 81.0732421875 c 0
 683.243164062 86.4267578125 683.505859375 100 672.966796875 100 c 2
 575.123046875 100 l 1
 570.048828125 104.826171875 562.62109375 127.470703125 562.62109375 131.94140625 c 0
 562.62109375 204.712890625 693.0546875 397.538085938 736.743164062 426.83984375 c 0
 759.227539062 442.063476562 778.38671875 443 803.126953125 443 c 0
 806.74609375 443 810.499023438 443.170898438 814.021484375 443.170898438 c 0
 822.958007812 443.170898438 830.409179688 442.069335938 830.409179688 434.276367188 c 0
 830.409179688 354.157226562 705.890625 301.571289062 694.672851562 217.672851562 c 1
 694.672851562 212 l 1
 787.112304688 212 789.369140625 303 886.126953125 303 c 0
 891.814453125 303 903.575195312 302.846679688 907.418945312 302.4765625 c 1
 907.418945312 298.6953125 l 1
 898.350585938 259.494140625 908.373046875 232.076171875 903.171875 195.669921875 c 0
 898.569335938 161.61328125 861.071289062 143.840820312 841.72265625 108.3671875 c 0
 790.508789062 13.1064453125 782.110351562 -91 668.043945312 -91 c 0
 647.915039062 -91 634.96484375 -81.625 634.96484375 -61.9912109375 c 0
145.552734375 32.32421875 m 0
 147.739257812 89.880859375 322.705078125 309.525390625 368.72265625 374 c 0
 403.357421875 422.525390625 574.473632812 648.956054688 612.874023438 698.958007812 c 0
 658.801757812 759.799804688 767.989257812 914 841.126953125 914 c 0
 873.188476562 914 886.2734375 880.052734375 886.2734375 846.52734375 c 0
 886.2734375 840.850585938 885.897460938 835.185546875 885.17578125 829.69921875 c 0
 872.521484375 740.145507812 268.736328125 -7 183.6171875 -7 c 0
 160.633789062 -7 145.552734375 8.34375 145.552734375 32.32421875 c 0
31 442.2109375 m 0
 31 529.220703125 116.55859375 602.931640625 188.540039062 605 c 0
 199.754882812 605 208.7421875 607.189453125 207.284179688 594.610351562 c 0
 202.205078125 554.368164062 152.969726562 520.899414062 152.969726562 461.274414062 c 0
 152.969726562 450.758789062 154.932617188 433 170.817382812 433 c 0
 228.15625 435.741210938 285.673828125 534.82421875 285.673828125 589.663085938 c 0
 285.673828125 632.0625 238.509765625 628.684570312 238.509765625 655.235351562 c 0
 238.509765625 706.002929688 313.92578125 738.063476562 322.408203125 798.370117188 c 0
 323.865234375 811.694335938 312.606445312 816 304.723632812 816 c 0
 256.681640625 816 247.9921875 707 216.108398438 707 c 0
 188.302734375 707 177.763671875 741.2734375 177.763671875 771.443359375 c 0
 178.672851562 866.963867188 290.329101562 905.01953125 357.892578125 906 c 0
 411.048828125 906 456.477539062 875.513671875 456.477539062 821.383789062 c 0
 456.477539062 755.745117188 419.719726562 735.572265625 374.275390625 695.1328125 c 1
 374.275390625 691.560546875 l 1
 393.697265625 656.265625 434.41015625 648.432617188 434.41015625 608.151367188 c 0
 434.41015625 484.47265625 251.578125 350 150.126953125 350 c 0
 87.607421875 350 31 380.750976562 31 442.2109375 c 0
EndSplineSet
EndChar

StartChar: multiply
Encoding: 215 215 85
Width: 770
Flags: HW
HStem: 673 20G<686.165 698.678>
LayerCount: 2
Fore
SplineSet
508.690429688 358.704101562 m 1
 544.911132812 290.870117188 624.643554688 205.672851562 624.643554688 127.780273438 c 0
 624.643554688 107.17578125 602.569335938 89 588.989257812 89 c 0
 528.43359375 89 438.884765625 280.83203125 376.77734375 280.83203125 c 0
 261.447265625 280.83203125 171.7890625 111 57.3310546875 111 c 0
 41.609375 111 28 120.7734375 28 140.53125 c 0
 28 244.814453125 339.122070312 318.579101562 298.629882812 371.038085938 c 2
 161.892578125 548.186523438 l 2
 156.57421875 554.403320312 154.865234375 564.645507812 154.865234375 576.208984375 c 0
 157.458007812 654.967773438 181.802734375 716 251.146484375 716 c 0
 334.857421875 716 384.99609375 584.6328125 426.231445312 519.295898438 c 0
 430.76953125 511.880859375 433.6640625 508 442.100585938 508 c 0
 442.884765625 508 447.719726562 507.4765625 453.580078125 507.4765625 c 0
 461.409179688 507.4765625 471.0703125 508.411132812 475.350585938 512.779296875 c 2
 628.770507812 662.03125 l 2
 646.891601562 679.974609375 674.998046875 693 697.331054688 693 c 0
 722.869140625 693 740.045898438 678.556640625 740.045898438 650.416015625 c 0
 740.045898438 529.614257812 516.583007812 433.342773438 508.690429688 371.334960938 c 1
 508.690429688 358.704101562 l 1
EndSplineSet
EndChar

StartChar: f_f
Encoding: 64256 64256 86
Width: 761
Flags: HW
LayerCount: 2
Fore
SplineSet
284.045898438 13.865234375 m 0
 284.045898438 120.233398438 315.298828125 210.36328125 330.12109375 311 c 1
 264.767578125 311 l 2
 223.203125 311 217.163085938 -30 100.288085938 -30 c 0
 45.064453125 -30 28 2.0810546875 28 53.26171875 c 0
 28 69.025390625 29.619140625 86.6005859375 32.240234375 105.608398438 c 0
 55.453125 273.760742188 262.653320312 1007 458.583007812 1007 c 0
 479.255859375 1007 484.549804688 981.751953125 484.549804688 955.592773438 c 0
 484.549804688 940.325195312 482.747070312 924.747070312 481.14453125 913.697265625 c 0
 476.946289062 881.533203125 434.916992188 715 402.788085938 715 c 0
 395.999023438 715 393.909179688 729.03125 393.909179688 748.20703125 c 0
 393.909179688 766.373046875 395.784179688 789.15625 397.315429688 809 c 1
 386.146484375 809 l 2
 385.942382812 808.021484375 381.28125 803.6484375 381.28125 803.6484375 c 1
 377.288085938 785.31640625 313.204101562 600.557617188 301.040039062 509.75 c 0
 300.517578125 506.548828125 296.264648438 489 310.774414062 489 c 2
 369.505859375 489 l 2
 400.034179688 489 542.838867188 1001 692.288085938 1001 c 0
 722.595703125 1001 731.21484375 976.58984375 731.21484375 945.336914062 c 0
 731.21484375 931.633789062 729.557617188 916.614257812 727.345703125 901.760742188 c 0
 722.959960938 873.25390625 689.099609375 715 653.288085938 715 c 0
 644.19140625 715 641.479492188 728.116210938 641.479492188 747.059570312 c 0
 641.479492188 767.24609375 644.55859375 794.049804688 646.275390625 818.65234375 c 1
 646.275390625 845.849609375 l 1
 636.748046875 821.095703125 l 1
 592.27734375 719.684570312 555.84765625 607.6640625 545.702148438 493.528320312 c 0
 545.702148438 488.994140625 545.702148438 484.4609375 545.702148438 479.926757812 c 1
 556.2421875 481.297851562 580.88671875 484.364257812 603.455078125 484.364257812 c 0
 632.276367188 484.364257812 657.76953125 478.438476562 657.76953125 454.150390625 c 0
 657.76953125 301.565429688 500.259765625 313.60546875 492.1640625 290.607421875 c 0
 471.106445312 232.559570312 445.516601562 -37 351.88671875 -37 c 0
 318.305664062 -37 284.045898438 -22.310546875 284.045898438 13.865234375 c 0
EndSplineSet
EndChar

StartChar: f_f_i
Encoding: 64259 64259 87
Width: 909
Flags: HW
HStem: 360.059 140.941<532.123 583.617>
VStem: 743.409 133.824<837.224 900.54>
LayerCount: 2
Fore
SplineSet
879.096679688 925.166992188 m 0
 879.096679688 859.969726562 844.915039062 789 786.188476562 789 c 0
 751.393554688 789 741.94921875 812.9609375 741.94921875 842.147460938 c 0
 741.94921875 860.856445312 749.401367188 881.362304688 749.401367188 899.780273438 c 0
 749.401367188 912.774414062 738.9921875 914 732.62109375 914 c 0
 730.364257812 914 725.62890625 913 725.62890625 913 c 1
 615.671875 826.233398438 529.817382812 656.482421875 529.817382812 522.146484375 c 0
 529.817382812 511.600585938 538.845703125 501 549.616210938 501 c 0
 708.71484375 501 679.748046875 741 789.188476562 741 c 0
 819.995117188 741 827.870117188 708.237304688 827.870117188 672.45703125 c 0
 827.870117188 652.814453125 825.497070312 632.263671875 823.241210938 615.723632812 c 0
 810.921875 530.223632812 733.579101562 186.381835938 644.0703125 186.381835938 c 0
 596.764648438 186.381835938 585.5078125 242.098632812 585.5078125 296.556640625 c 0
 585.5078125 319.333984375 587.4765625 341.890625 589.6015625 360.05859375 c 1
 588.518554688 360.05859375 577.06640625 361.07421875 574.213867188 361.07421875 c 0
 401.655273438 361.07421875 489.485351562 -33 322.334960938 -33 c 0
 280.936523438 -33 268.203125 -2.1416015625 268.203125 38.3994140625 c 0
 268.203125 134.340820312 321.686523438 206.700195312 321.686523438 297.723632812 c 0
 321.686523438 307.41796875 318.634765625 315.254882812 308.573242188 315.254882812 c 0
 298.47265625 314.370117188 262.271484375 309.313476562 251.22265625 306.834960938 c 0
 204.98046875 293.779296875 211.930664062 -34 97.1884765625 -34 c 0
 43.33203125 -34 28 -1.8984375 28 47.8388671875 c 0
 28 66.279296875 30.107421875 87.1435546875 33.140625 109.6953125 c 0
 51.37890625 238.614257812 260.372070312 997 438.435546875 997 c 0
 463.431640625 997 470.240234375 976.012695312 470.240234375 949.458984375 c 0
 470.240234375 935.043945312 468.234375 918.989257812 466.041015625 903.760742188 c 0
 461.7421875 875.356445312 427.463867188 719 392.192382812 719 c 0
 388.428710938 719 387.208984375 729.290039062 387.208984375 744.133789062 c 0
 387.208984375 762.9140625 389.161132812 788.984375 390.385742188 810.732421875 c 1
 390.385742188 812.287109375 l 1
 389.114257812 813.0625 385.2734375 813.436523438 383.962890625 813.436523438 c 0
 349.903320312 813.436523438 303.663085938 560.075195312 296.025390625 504 c 1
 304.336914062 504 344.599609375 501 359.723632812 501 c 1
 397.672851562 505.122070312 528.508789062 1012 790.188476562 1012 c 0
 845.982421875 1012 879.096679688 981.68359375 879.096679688 925.166992188 c 0
EndSplineSet
EndChar

StartChar: f_f_l
Encoding: 64260 64260 88
Width: 1152
Flags: HW
HStem: 174 152<676.848 851.342> 711 21G<394.645 415.395 652.006 675.344> 879 121<981.221 1044.48>
LayerCount: 2
Fore
SplineSet
834.037109375 495 m 1
 929.337890625 572.944335938 1008.35058594 725.397460938 1008.35058594 860.873046875 c 0
 1008.35058594 871.017578125 1005.38671875 879 995.151367188 879 c 0
 952.12109375 879 820.508789062 537.501953125 814.500976562 495 c 1
 834.037109375 495 l 1
1006.55566406 433.2578125 m 0
 997.8515625 302.103515625 841.154296875 174 744.08984375 174 c 0
 609.60546875 174 614.396484375 314 587.91796875 314 c 0
 577.046875 314 501.974609375 308.575195312 496.174804688 287.337890625 c 0
 476.0390625 212.819335938 440.403320312 8.7939453125 374.68359375 -29.212890625 c 0
 368.338867188 -32.8828125 348.961914062 -30 342.83203125 -30 c 0
 342.434570312 -30 342.087890625 -30 341.799804688 -30 c 0
 291.619140625 -30 270.1328125 -9.6181640625 270.1328125 37.44921875 c 0
 270.1328125 125.969726562 311.8515625 198.424804688 322.95703125 280.19921875 c 0
 325.146484375 292.38671875 320.637695312 302 308.193359375 302 c 0
 290.353515625 302 261.00390625 295.885742188 251.346679688 292.76953125 c 0
 205.516601562 279.889648438 209.958007812 -37 98.068359375 -37 c 0
 46.373046875 -37 28 -3.919921875 28 45.7255859375 c 0
 28 57.748046875 29.0771484375 70.7412109375 31.01953125 84.470703125 c 0
 53.2548828125 244.70703125 257.73828125 993 447.561523438 993 c 0
 480.8828125 993 484.041992188 965.404296875 484.041992188 941.643554688 c 0
 484.041992188 889.87890625 439.155273438 723.874023438 396.163085938 711 c 0
 393.125 711 384.102539062 712.259765625 384.2890625 713.541015625 c 2
 397.935546875 807 l 1
 382.325195312 807 l 2
 371.946289062 807 293.1640625 522.44921875 293.1640625 487.16015625 c 0
 293.1640625 472.442382812 307.499023438 469.33203125 320.508789062 469.33203125 c 0
 330.036132812 469.33203125 338.852539062 471 340.811523438 471 c 0
 354.282226562 471 375.336914062 471.454101562 383.873046875 489.959960938 c 0
 434.27734375 609.287109375 565.092773438 1001 703.564453125 1001 c 0
 735.560546875 1001 748.557617188 986.212890625 748.557617188 955.55859375 c 0
 748.557617188 898.619140625 699.584960938 711 655.131835938 711 c 0
 648.87890625 711 643.064453125 711.850585938 643.232421875 713.373046875 c 2
 660.82421875 839 l 1
 642.282226562 839 l 2
 631.083007812 839 550.030273438 539.02734375 543.489257812 492.70703125 c 0
 542.65234375 486.780273438 541.01953125 473.009765625 552.65625 471.043945312 c 1
 618.298828125 471.043945312 l 2
 645.366210938 471.043945312 669.234375 560.01953125 678.264648438 576.631835938 c 0
 735.080078125 683.526367188 920.201171875 1000 1042.06835938 1000 c 0
 1102.85253906 1000 1122.34375 948.161132812 1122.34375 886.598632812 c 0
 1122.34375 745.483398438 1073.96679688 638.2734375 989.583984375 544.434570312 c 0
 922.215820312 469.516601562 879.493164062 438.568359375 809.40625 384.396484375 c 0
 795.184570312 374.065429688 789.204101562 368.875976562 789.204101562 350.762695312 c 0
 789.204101562 329.436523438 808.391601562 326 821.1875 326 c 0
 880.513671875 326 935.758789062 450.979492188 983.434570312 450.979492188 c 0
 1001.11523438 450.979492188 1006.55566406 445.811523438 1006.55566406 433.2578125 c 0
EndSplineSet
EndChar
